<svg width="60" height="60" viewBox="0 0 60 60" fill="none" xmlns="http://www.w3.org/2000/svg">
<g clip-path="url(#clip0_565_1931)">
<path fill-rule="evenodd" clip-rule="evenodd" d="M57.9546 6.2C56.9296 5.37754 55.6428 4.95157 54.3296 5C51.9496 5.0819 49.607 5.61643 47.4271 6.575C47.2018 4.76264 46.323 3.09473 44.9556 1.88421C43.5881 0.673677 41.8259 0.00371146 39.9996 0L19.9996 0C18.1733 0.00371146 16.4111 0.673677 15.0436 1.88421C13.6761 3.09473 12.7973 4.76264 12.5721 6.575C10.3921 5.61643 8.04955 5.0819 5.66957 5C4.35632 4.95157 3.06953 5.37754 2.04457 6.2C-1.68043 9.25 -0.180426 17.25 5.44457 24.1C7.468 26.6394 9.96499 28.7619 12.7971 30.35C13.4019 33.3358 14.8918 36.0702 17.0728 38.1972C19.2537 40.3242 22.0246 41.7451 25.0246 42.275C25.004 42.3481 24.9955 42.4241 24.9996 42.5V45H22.4996C21.5694 45.0005 20.6577 45.2605 19.8672 45.7507C19.0766 46.2409 18.4385 46.942 18.0246 47.775L15.5246 52.775C15.1409 53.5342 14.96 54.3798 14.9994 55.2296C15.0388 56.0794 15.2972 56.9045 15.7496 57.625C16.1969 58.3502 16.8222 58.9491 17.566 59.3647C18.3098 59.7804 19.1475 59.9991 19.9996 60H39.9996C40.8516 59.9991 41.6894 59.7804 42.4332 59.3647C43.177 58.9491 43.8022 58.3502 44.2496 57.625C44.7019 56.9045 44.9603 56.0794 44.9998 55.2296C45.0392 54.3798 44.8583 53.5342 44.4746 52.775L41.9746 47.775C41.5606 46.942 40.9225 46.2409 40.132 45.7507C39.3414 45.2605 38.4298 45.0005 37.4996 45H34.9996V42.5C35.0036 42.4241 34.9952 42.3481 34.9746 42.275C37.9745 41.7451 40.7454 40.3242 42.9264 38.1972C45.1073 36.0702 46.5972 33.3358 47.2021 30.35C50.0342 28.7619 52.5311 26.6394 54.5546 24.1C60.1796 17.25 61.6796 9.25 57.9546 6.2ZM12.4996 24.15C12.4728 24.1107 12.4389 24.0768 12.3996 24.05C11.2804 23.0971 10.2434 22.0518 9.29957 20.925C7.58754 18.9147 6.28785 16.5872 5.47457 14.075C5.24957 13.35 4.29957 10.15 5.59957 9.975C8.11096 10.076 10.5261 10.9685 12.4996 12.525V24.15ZM37.4996 50L39.9996 55H19.9996L22.4996 50H37.4996ZM42.4996 27.4C42.4997 30.0614 41.4493 32.6154 39.5768 34.5067C37.7042 36.3979 35.1609 37.4736 32.4996 37.5H27.4996C24.8383 37.4736 22.2949 36.3979 20.4223 34.5067C18.5498 32.6154 17.4994 30.0614 17.4996 27.4V7.5C17.5099 6.84017 17.7766 6.21026 18.2432 5.74364C18.7098 5.27701 19.3397 5.01031 19.9996 5H39.9996C40.6594 5.01031 41.2893 5.27701 41.7559 5.74364C42.2226 6.21026 42.4893 6.84017 42.4996 7.5V27.4ZM54.5271 14.075C53.7138 16.5872 52.4141 18.9147 50.7021 20.925C49.7582 22.0518 48.7212 23.0971 47.6021 24.05C47.5628 24.0768 47.5289 24.1107 47.5021 24.15V12.525C49.4762 10.968 51.8923 10.0754 54.4046 9.975C55.7046 10.15 54.7471 13.35 54.5271 14.075Z" fill="white"/>
</g>
<defs>
<clipPath id="clip0_565_1931">
<rect width="60" height="60" fill="white"/>
</clipPath>
</defs>
</svg>
