<svg width="78" height="78" viewBox="0 0 78 78" fill="none" xmlns="http://www.w3.org/2000/svg">
<g clip-path="url(#clip0_309_1319)">
<path d="M55.6609 40.6258C55.0253 40.3446 54.3776 40.0689 53.7243 39.7946L49.2406 38.2495L49.0649 38.1886C48.9997 37.8982 48.8672 37.6271 48.6779 37.3974C48.1459 36.7814 47.4755 35.8902 46.9319 35.2819C46.7008 35.4689 41.9903 39.1829 41.6331 39.4361H40.8033C40.446 39.1829 35.7358 35.4689 35.5044 35.2819C34.9609 35.8902 34.2905 36.7814 33.7584 37.3974C33.5743 37.6206 33.4439 37.8831 33.3772 38.1646L33.0478 38.2824C33.0478 38.2824 29.3292 39.6114 28.8612 39.7991C24.5303 41.5367 20.6724 43.4628 18.6164 46.5896C17.7389 47.9263 17.0196 49.8238 16.4933 51.5952L11.3201 54.5913C11.4767 57.7083 11.65 60.0683 11.8716 62.8117C12.0125 64.5464 12.1617 66.2823 12.395 68.0074C12.5372 69.3734 12.8239 70.7204 13.2502 72.0259C13.9455 74.1479 15.4944 76.213 17.742 76.8376C20.0088 77.4677 23.1607 77.1399 24.759 74.9321C24.7679 75.7382 24.777 76.516 24.7854 77.2557H68.8699C68.0137 65.575 67.9108 63.2615 67.2838 57.3702C66.8839 53.5991 65.6438 48.7707 64.2105 46.5912C62.5 43.9886 59.2737 42.2229 55.6609 40.6258Z" fill="white"/>
<path d="M35.5058 35.2826C34.9623 35.8909 34.2919 36.7821 33.7599 37.3981C33.4467 37.7609 33.2163 38.4269 33.3944 38.9072C33.599 39.3148 35.8583 42.9381 37.3799 43.9128C37.8606 43.2724 39.8518 40.5081 40.8044 39.4368C40.4472 39.1836 35.737 35.4696 35.5058 35.2826Z" fill="white"/>
<path d="M46.9329 35.2826C47.4764 35.8909 48.1468 36.7821 48.6789 37.3981C48.992 37.7609 49.2224 38.4269 49.0443 38.9072C48.8397 39.3148 46.5804 42.9381 45.0589 43.9128C44.5793 43.2724 42.5869 40.5081 41.6343 39.4368C41.9913 39.1836 46.7017 35.4696 46.9329 35.2826Z" fill="white"/>
<path d="M52.8928 19.5709C53.0698 19.4074 53.2775 19.2805 53.5038 19.1976C53.7302 19.1147 53.9707 19.0775 54.2115 19.0881C54.5178 19.0781 54.821 19.1514 55.0889 19.3003C55.3568 19.4491 55.5792 19.6679 55.7326 19.9332C56.2495 20.8295 56.2277 22.4815 55.8807 23.5034C55.635 24.2272 55.2334 25.3345 54.2621 26.1283C54.0486 26.3061 53.8005 26.4377 53.5336 26.5147C53.2667 26.5918 52.9866 26.6126 52.7113 26.576L52.5624 26.552C52.4162 27.046 52.2379 27.5299 52.0286 28.0007C51.645 29.0403 49.578 32.6126 46.9324 34.1574V35.2843C46.7013 35.4713 41.9908 39.1853 41.6335 39.4385H40.8037C40.4465 39.1853 35.7362 35.4713 35.5049 35.2843C35.5049 35.2843 35.5049 34.7357 35.5049 34.1392C34.3475 33.4569 33.3246 32.5688 32.4867 31.5185C31.2792 30.0596 30.3831 28.369 29.8536 26.5508C29.5602 26.6127 29.2566 26.6069 28.9658 26.534C28.6751 26.4611 28.4047 26.3229 28.1752 26.13C27.2049 25.3361 26.8023 24.2289 26.5565 23.505C26.2096 22.4832 26.1878 20.8312 26.7047 19.9349C26.858 19.6696 27.0805 19.4508 27.3484 19.3019C27.6162 19.1531 27.9195 19.0798 28.2258 19.0897C28.4666 19.0792 28.7071 19.1164 28.9334 19.1993C29.1598 19.2822 29.3675 19.4091 29.5445 19.5726C29.5445 19.5726 28.1858 8.74692 41.2178 8.74692C54.2196 8.74524 52.8928 19.5709 52.8928 19.5709Z" fill="white"/>
<path d="M38.0798 68.2376C37.6943 67.8414 37.3352 67.4204 37.0046 66.9774C37.5818 61.7006 39.356 45.4653 39.3505 45.2049C39.3181 44.7054 39.2151 44.2129 39.0446 43.7423C38.9535 43.45 38.7468 42.8413 38.5799 42.2862C39.3371 41.266 40.248 40.0624 40.8045 39.4366H41.6343C42.2217 40.0971 43.2038 41.4027 43.984 42.4545C43.8493 42.9456 43.7179 43.4874 43.6399 43.7423C43.4687 44.2129 43.3648 44.7053 43.3314 45.2049C43.3287 45.4626 45.0625 61.3812 45.6609 66.8028C45.6609 66.8028 42.6658 70.2598 41.3317 71.285C40.1794 70.3446 39.0929 69.3264 38.0798 68.2376Z" fill="#3D8DCC"/>
<path d="M43.1508 44.0353C41.9232 44.0353 40.6956 44.061 39.468 44.0614C39.3154 44.0614 39.169 44.1221 39.0611 44.23C38.9532 44.3379 38.8925 44.4843 38.8925 44.6369C38.8925 44.7895 38.9532 44.9359 39.0611 45.0438C39.169 45.1517 39.3154 45.2123 39.468 45.2123C40.6956 45.2123 41.9232 45.1867 43.1508 45.1862C43.3034 45.1862 43.4498 45.1256 43.5577 45.0176C43.6656 44.9097 43.7262 44.7634 43.7262 44.6108C43.7262 44.4581 43.6656 44.3118 43.5577 44.2039C43.4498 44.0959 43.3034 44.0353 43.1508 44.0353Z" fill="#0A6D9A"/>
<path d="M38.0253 42.4387C38.2651 43.2326 38.6008 44.0264 38.7417 44.8457C38.7727 45.0253 38.7789 45.2083 38.7602 45.3895C38.7187 45.8393 38.67 46.2884 38.6228 46.7377C38.4284 48.5932 38.2298 50.4484 38.027 52.3034C37.7684 54.6992 37.5083 57.0948 37.2468 59.4902C37.0185 61.5842 36.79 63.6786 36.5611 65.7735C36.5201 66.1473 36.4599 66.5247 36.4378 66.9004C36.4191 67.2227 36.6217 67.4327 36.8111 67.6694C36.9751 67.8741 37.1482 68.0717 37.3238 68.2666C38.2373 69.2804 39.2121 70.2371 40.2427 71.1316C40.4652 71.3234 40.6915 71.5128 40.9243 71.6931C41.0354 71.7949 41.1806 71.8513 41.3312 71.8513C41.4819 71.8513 41.627 71.7949 41.7381 71.6931C42.6164 70.963 43.4348 70.1636 44.1854 69.3026C44.8071 68.6344 45.4293 67.9616 46.0201 67.2646C46.3078 66.9251 46.209 66.5592 46.164 66.1523C46.1147 65.7048 46.0657 65.2579 46.0167 64.8118C45.8978 63.7293 45.7792 62.6467 45.6609 61.5639C45.3868 59.0536 45.1137 56.5432 44.8416 54.0329C44.6099 51.8909 44.3797 49.7495 44.1511 47.6085C44.0849 46.9852 44.0185 46.3603 43.9555 45.736C43.9404 45.5871 43.9212 45.4379 43.9121 45.2886C43.8816 44.7918 44.0744 44.3055 44.2115 43.8368C44.3314 43.4292 44.4273 43.0163 44.5376 42.6073C44.7316 41.8916 43.6217 41.5861 43.428 42.3013C43.2422 42.987 43.0182 43.6764 42.865 44.3695C42.7882 44.6696 42.7532 44.9789 42.7612 45.2886C42.7792 45.5789 42.818 45.8693 42.8477 46.1584C42.9834 47.4692 43.1226 48.7793 43.2652 50.0889C43.6773 53.9252 44.0935 57.7615 44.5139 61.5977C44.7033 63.3332 44.8936 65.0685 45.0848 66.8038L45.2526 66.3962C44.7083 67.0242 44.1536 67.6431 43.5884 68.2529C42.7492 69.1617 41.9035 70.1178 40.9234 70.8784H41.7371C40.8868 70.2003 40.0798 69.4697 39.3208 68.6908C38.941 68.3119 38.5677 67.9261 38.2068 67.5293C38.0555 67.3629 37.9064 67.1937 37.7618 67.0225C37.7045 66.9539 37.6479 66.8851 37.5925 66.8151C37.669 66.911 37.5228 66.7192 37.5007 66.6873L37.5791 66.9776C37.9608 63.4884 38.3414 59.999 38.7209 56.5094C39.0853 53.1563 39.4534 49.8036 39.8029 46.4488C39.8418 46.0745 39.889 45.6998 39.9161 45.3243C39.9285 45.0221 39.899 44.7197 39.8284 44.4256C39.6665 43.6464 39.3639 42.8931 39.1342 42.132C38.9206 41.425 37.8095 41.7264 38.0244 42.438L38.0253 42.4387Z" fill="#0A6D9A"/>
<path d="M35.099 34.8758C34.7499 35.2695 34.4219 35.6814 34.0919 36.0916C33.7802 36.4796 33.4184 36.8507 33.1441 37.2665C32.9234 37.5776 32.7949 37.9446 32.7733 38.3255C32.7518 38.7063 32.8381 39.0856 33.0223 39.4196C33.7165 40.5875 34.4994 41.7002 35.3641 42.748C35.8522 43.3856 36.4337 43.946 37.0888 44.4103C37.2215 44.4835 37.3772 44.5029 37.5238 44.4644C37.6703 44.4259 37.7964 44.3324 37.8759 44.2034C38.9707 42.7408 39.9998 41.2133 41.2106 39.8437C41.2709 39.7805 41.3163 39.7046 41.3435 39.6216C41.3707 39.5386 41.379 39.4506 41.3679 39.364C41.3567 39.2773 41.3263 39.1943 41.279 39.1209C41.2316 39.0475 41.1684 38.9857 41.0941 38.9398C41.021 38.8875 40.9502 38.8321 40.8783 38.7772L40.7956 38.7137C40.7237 38.659 40.8939 38.7899 40.7898 38.7091L40.5501 38.524C40.1324 38.1989 39.7156 37.8729 39.2997 37.546C38.4025 36.8427 37.5065 36.1376 36.6117 35.4308C36.3779 35.246 36.1427 35.0628 35.9106 34.8758C35.8005 34.7719 35.655 34.7141 35.5037 34.7141C35.3524 34.7141 35.2068 34.7719 35.0968 34.8758C34.9899 34.9842 34.93 35.1304 34.93 35.2826C34.93 35.4349 34.9899 35.5811 35.0968 35.6895C36.5985 36.9011 38.1258 38.0831 39.6478 39.2688C39.9341 39.4917 40.2165 39.7224 40.511 39.9336L40.3944 39.03C39.1189 40.4726 38.033 42.0829 36.8797 43.6224L37.6671 43.416C37.6158 43.3824 37.5654 43.3477 37.5156 43.3119C37.4657 43.2762 37.5117 43.3119 37.5211 43.3182C37.4906 43.2942 37.4607 43.2702 37.4312 43.2462C37.3116 43.1465 37.196 43.0426 37.0842 42.9345C36.8495 42.708 36.6287 42.467 36.4153 42.2198C35.964 41.6969 35.5492 41.1437 35.152 40.5788C34.8132 40.0972 34.4859 39.6071 34.1759 39.1067C34.0919 38.971 34.008 38.8345 33.9301 38.6957C33.9183 38.6769 33.9077 38.6573 33.8982 38.6372C33.9351 38.7281 33.9016 38.6324 33.9056 38.5849C33.9101 38.4083 33.9457 38.2337 34.0109 38.0694C34.1955 37.6525 34.5878 37.2988 34.8707 36.9466C35.2112 36.5232 35.5492 36.0974 35.9096 35.6907C36.4026 35.1371 35.5917 34.3202 35.099 34.8758Z" fill="#0A6D9A"/>
<path d="M46.5258 35.6895C46.8408 36.0446 47.1384 36.4146 47.4369 36.7845C47.7119 37.1269 48.0157 37.4559 48.2761 37.8088C48.3753 37.9452 48.4485 38.0987 48.4918 38.2617C48.5147 38.3387 48.5282 38.4182 48.5319 38.4984C48.5319 38.541 48.4974 38.7448 48.5424 38.629C48.4875 38.7452 48.4229 38.8565 48.3494 38.9618C47.7129 40.0228 46.9991 41.0355 46.2138 41.9915C45.97 42.285 45.7173 42.5715 45.4466 42.8408C45.3267 42.9607 45.2027 43.0772 45.0737 43.1877C44.9803 43.2739 44.8784 43.3504 44.7695 43.416L45.5569 43.6224C44.4036 42.0829 43.3177 40.4726 42.0421 39.0299L41.9256 39.9336C42.5953 39.4541 43.2323 38.924 43.8799 38.4161C44.7952 37.6983 45.7092 36.979 46.6219 36.2582C46.8617 36.0688 47.1029 35.8811 47.3412 35.6893C47.4481 35.5808 47.5081 35.4347 47.5081 35.2824C47.5081 35.1301 47.4481 34.9839 47.3412 34.8755C47.2315 34.7704 47.0855 34.7117 46.9336 34.7117C46.7817 34.7117 46.6357 34.7704 46.526 34.8755C45.0426 36.0724 43.5335 37.2401 42.0301 38.412L41.7542 38.6278L41.6343 38.7213C41.5592 38.7796 41.7283 38.6494 41.6182 38.7336C41.5276 38.8031 41.4377 38.8743 41.3449 38.9407C41.2705 38.9866 41.2074 39.0485 41.16 39.1219C41.1126 39.1952 41.0823 39.2783 41.0711 39.3649C41.0599 39.4515 41.0683 39.5396 41.0955 39.6226C41.1227 39.7056 41.1681 39.7814 41.2284 39.8447C42.4392 41.2142 43.4683 42.743 44.563 44.2043C44.6421 44.3339 44.7683 44.4277 44.9151 44.4662C45.0619 44.5047 45.2179 44.4848 45.3504 44.4108C46.5972 43.5956 47.5225 42.2447 48.3609 41.0416C48.7021 40.5517 49.0323 40.0537 49.3425 39.5435C49.445 39.3921 49.5313 39.2304 49.6 39.0611C49.7407 38.563 49.6894 38.0302 49.4562 37.5681C49.2351 37.072 48.8141 36.6713 48.4765 36.2522C48.1037 35.7892 47.7359 35.3217 47.3414 34.8767C46.8473 34.3204 46.0357 35.1368 46.5258 35.6895Z" fill="#0A6D9A"/>
<path d="M69.4453 77.2547C69.1701 73.4983 68.9097 69.7409 68.6301 65.9857C68.4572 63.6619 68.2652 61.34 68.0307 59.0214C67.6483 55.2377 67.0548 51.4228 65.5419 47.9042C64.8297 46.2621 63.7168 44.8251 62.305 43.7248C60.6332 42.3936 58.7304 41.3991 56.795 40.5095C55.5057 39.9178 54.211 39.3558 52.8707 38.8938L49.6293 37.7764L49.3946 37.6956C48.6928 37.4537 48.3914 38.565 49.0886 38.8053C50.9665 39.4526 52.8714 40.041 54.6958 40.8289C56.6684 41.6808 58.639 42.5888 60.4344 43.778C61.8934 44.745 63.2469 45.9436 64.0812 47.5043C64.9684 49.1618 65.4851 51.031 65.9167 52.8511C66.3344 54.6655 66.6335 56.5052 66.8122 58.3585C67.0459 60.6168 67.2471 62.8779 67.4159 65.1417C67.6765 68.5704 67.912 72.0005 68.1611 75.4296C68.2056 76.0382 68.25 76.6468 68.2944 77.2555C68.298 77.407 68.3598 77.5512 68.4669 77.6584C68.5741 77.7655 68.7184 77.8273 68.8699 77.8309C69.0221 77.8297 69.1678 77.7687 69.2754 77.661C69.3831 77.5534 69.4441 77.4077 69.4453 77.2555V77.2547Z" fill="#0A6D9A"/>
<path d="M23.8582 53.0203C23.9251 55.8616 23.9683 58.7028 24.0102 61.5448C24.0611 64.9859 24.1066 68.4271 24.1469 71.8684C24.1685 73.6641 24.1895 75.4596 24.21 77.255C24.2183 77.9951 25.3692 77.9971 25.3608 77.255C25.3231 73.9553 25.2832 70.6557 25.241 67.3562C25.198 64.0417 25.1494 60.7273 25.0954 57.4131C25.0703 55.9488 25.0415 54.4845 25.0089 53.0203C24.9916 52.2811 23.841 52.2782 23.8582 53.0203Z" fill="#0A6D9A"/>
<path d="M58.3041 77.255C58.3277 74.2293 58.3546 71.2037 58.3846 68.1784C58.4192 64.6544 58.4591 61.1306 58.5045 57.6068C58.5256 56.0781 58.5505 54.5492 58.5793 53.0203C58.5947 52.2794 57.4438 52.2797 57.4284 53.0203C57.3668 56.0371 57.3325 59.0543 57.298 62.0715C57.2574 65.5977 57.222 69.1239 57.1918 72.6503C57.1782 74.1848 57.1653 75.7193 57.1529 77.2538C57.1472 77.9944 58.2981 77.9951 58.3038 77.2538L58.3041 77.255Z" fill="#0A6D9A"/>
<path d="M17.0498 51.7489C17.5747 49.9914 18.2007 48.1907 19.2557 46.6725C20.1735 45.4178 21.3198 44.3474 22.6345 43.5177C25.0671 41.9067 27.8057 40.7843 30.5391 39.795C31.4262 39.4742 32.3141 39.1552 33.2027 38.8379C33.3477 38.7941 33.4703 38.6961 33.5451 38.5644C33.62 38.4326 33.6412 38.2771 33.6045 38.1301C33.5628 37.9837 33.4653 37.8594 33.3329 37.7843C33.2005 37.7091 33.0438 37.689 32.8967 37.7283C31.0292 38.3958 29.154 39.0424 27.3267 39.8142C24.1536 41.1569 20.8132 42.7873 18.6498 45.5686C17.3172 47.2813 16.5557 49.3826 15.9404 51.4429C15.728 52.1543 16.8386 52.4581 17.0503 51.7489H17.0498Z" fill="#0A6D9A"/>
<path d="M10.7447 54.5913C10.8623 56.925 11.0142 59.2559 11.2002 61.5841C11.3949 64.0613 11.6009 66.5369 11.9574 68.9969C12.2475 70.9966 12.7726 73.073 13.9782 74.7319C14.5659 75.5684 15.3214 76.2732 16.1967 76.8013C17.0554 77.2764 18.0046 77.5649 18.9823 77.6482C21.1062 77.8803 23.4561 77.3072 24.9106 75.6608C25.3992 75.1076 24.5883 74.2905 24.0968 74.847C22.9385 76.1583 21.1716 76.6182 19.4727 76.5359C18.6319 76.5137 17.8051 76.3156 17.0455 75.9545C16.262 75.545 15.5801 74.9651 15.0502 74.2574C13.8887 72.7366 13.39 70.8069 13.1045 68.9451C12.7508 66.64 12.5671 64.3121 12.3823 61.9888C12.1861 59.5251 12.024 57.0593 11.8958 54.5913C11.8586 53.8542 10.7073 53.8497 10.7447 54.5913Z" fill="#0A6D9A"/>
<path d="M53.8341 8.03025C53.2857 7.1495 52.6089 6.35546 51.8263 5.6743L49.9621 4.01728C47.5455 1.32446 44.3333 0.57998 41.1675 0.57998C37.9642 0.534803 34.8379 1.56293 32.2868 3.50058C31.3348 4.24811 30.4924 5.1254 29.7841 6.10684C28.1613 7.69506 26.8668 11.1645 26.9637 14.6049C26.9527 16.1623 27.1433 17.7146 27.5307 19.223C27.7534 19.1398 27.9884 19.0946 28.2261 19.0892C28.4669 19.0787 28.7074 19.1159 28.9337 19.1988C29.16 19.2817 29.3677 19.4086 29.5448 19.5721L30.0677 19.9387C30.1059 19.2361 30.182 18.536 30.2957 17.8415C30.5384 16.3674 32.0683 15.6877 32.7174 14.3716C33.0919 13.6135 33.3146 12.7275 33.9553 12.188C34.4377 11.7819 35.0822 11.644 35.7022 11.5788C36.6639 11.4774 39.9168 11.6224 41.0049 11.8234C41.9254 11.8749 42.8173 12.0588 44.13 12.2259C44.8419 12.3166 46.1625 12.5496 46.6675 12.6508C48.6537 13.1064 49.4145 13.6034 50.4122 14.9547C50.7946 15.4728 51.2015 16.4173 51.5779 17.6483L52.8906 19.5721C53.0677 19.4086 53.2754 19.2817 53.5017 19.1988C53.728 19.1159 53.9685 19.0787 54.2093 19.0892C54.4298 19.0945 54.6481 19.1336 54.8567 19.2051C55.2773 17.7094 55.4629 16.1575 55.4067 14.6049C55.2806 11.5637 54.7795 9.59497 53.8341 8.03025Z" fill="#3D90B6"/>
<path d="M41.1607 11.2674C40.2163 11.1194 39.2632 11.0338 38.3075 11.0111C37.4098 10.9397 36.5078 10.9402 35.6101 11.0125C34.8938 11.0548 34.2044 11.3006 33.623 11.721C33.1393 12.1588 32.7721 12.71 32.5546 13.325C32.352 13.8778 32.0609 14.3941 31.6928 14.8536C31.3248 15.2732 30.9078 15.6479 30.5535 16.08C30.1059 16.6001 29.8122 17.2347 29.7052 17.9125C29.5882 18.6704 29.5311 19.4307 29.4712 20.1944C29.4724 20.3466 29.5334 20.4922 29.6411 20.5999C29.7487 20.7075 29.8944 20.7685 30.0466 20.7698C30.1983 20.7669 30.343 20.7053 30.4502 20.598C30.5575 20.4907 30.6191 20.3461 30.622 20.1944C30.706 19.1279 30.6379 17.8528 31.314 16.9613C31.9595 16.1107 32.8358 15.4909 33.2935 14.4968C33.5381 13.9655 33.716 13.3778 34.0677 12.9033C34.4087 12.4432 34.9376 12.2696 35.4824 12.1818C36.304 12.09 37.1326 12.0784 37.9565 12.1473C38.5188 12.1687 39.0808 12.1993 39.6418 12.2432C39.8859 12.2622 40.1297 12.2837 40.3731 12.3104L40.5194 12.3269C40.5294 12.3281 40.7112 12.3521 40.581 12.3339C40.6719 12.3465 40.7626 12.3609 40.8529 12.377C40.9999 12.4133 41.1552 12.3919 41.2869 12.3172C41.4186 12.2424 41.5166 12.12 41.5607 11.9752C41.6 11.828 41.5799 11.6714 41.5048 11.5389C41.4296 11.4065 41.3053 11.309 41.1588 11.2674H41.1607Z" fill="#0A6D9A"/>
<path d="M46.5166 13.2047C47.0959 13.3258 47.6618 13.5035 48.2063 13.7353C48.4295 13.8444 48.6437 13.9708 48.8472 14.1134C48.869 14.129 48.8908 14.145 48.9124 14.1614C48.8673 14.1259 48.8712 14.1292 48.9237 14.1709C48.9659 14.2055 49.0074 14.2406 49.0483 14.2762C49.1459 14.362 49.2402 14.4522 49.3306 14.5455C50.1985 15.4405 50.6493 16.5835 51.0252 17.8003C51.2429 18.5057 52.3542 18.2048 52.1351 17.4943C51.9071 16.704 51.6073 15.9362 51.2393 15.2005C50.9457 14.6615 50.577 14.167 50.1443 13.7317C49.243 12.8024 48.0583 12.3818 46.8226 12.095C46.1019 11.9272 45.7942 13.0368 46.5166 13.2047Z" fill="#0A6D9A"/>
<path d="M44.7589 11.8445C44.5779 11.0739 43.9744 10.4167 43.3683 9.94432C42.3589 9.19035 41.1651 8.72201 39.9123 8.58844C39.7599 8.58913 39.6139 8.64998 39.5062 8.75775C39.3984 8.86552 39.3375 9.01148 39.3369 9.16388C39.3406 9.31531 39.4025 9.4595 39.5096 9.56661C39.6167 9.67372 39.7609 9.73555 39.9123 9.73932C40.4612 9.81577 40.9984 9.96076 41.5113 10.1709C41.431 10.1381 41.5799 10.2016 41.5945 10.2083C41.6568 10.2366 41.7185 10.266 41.7796 10.2965C41.8893 10.351 41.9971 10.4089 42.103 10.4701C42.2039 10.5286 42.3029 10.5903 42.4001 10.6552C42.4505 10.6888 42.5002 10.7232 42.5492 10.7586C42.5701 10.7734 42.6898 10.8636 42.5938 10.7893C42.7547 10.9137 42.9069 11.049 43.0494 11.1942C43.1093 11.2556 43.1678 11.3187 43.2239 11.3839C43.2549 11.4196 43.2832 11.4589 43.3153 11.4939C43.3418 11.5273 43.3322 11.5146 43.2863 11.4556C43.3016 11.4762 43.317 11.497 43.3321 11.5179C43.4204 11.6424 43.4998 11.7731 43.5695 11.909C43.5783 11.9272 43.6138 11.9783 43.6093 11.9948C43.6138 11.9783 43.5627 11.8581 43.5961 11.9682C43.6145 12.0293 43.6356 12.0881 43.6503 12.1511C43.6908 12.2983 43.7882 12.4233 43.921 12.4987C44.0537 12.5741 44.211 12.5937 44.3582 12.5531C44.5053 12.5125 44.6304 12.4152 44.7058 12.2824C44.7811 12.1496 44.8007 11.9924 44.7601 11.8452L44.7589 11.8445Z" fill="#0A6D9A"/>
<path d="M29.3769 5.69878C28.2141 6.85374 27.4904 8.43212 27.0205 9.98173C26.4871 11.8461 26.2842 13.7895 26.4211 15.7239C26.4755 16.8961 26.6452 18.0602 26.928 19.1991C27.1111 19.9162 28.2215 19.6124 28.0378 18.8931C27.5884 17.0704 27.4292 15.1882 27.566 13.3159C27.6726 11.6135 28.1151 9.94908 28.8679 8.41845C29.2033 7.71608 29.6501 7.07255 30.1909 6.51279C30.7184 5.9901 29.9032 5.17633 29.3769 5.69878Z" fill="#0A6D9A"/>
<path d="M50.369 3.6104C48.2648 1.28898 45.3293 0.215781 42.2536 0.0357162C39.1443 -0.147226 35.9144 0.355565 33.2034 1.95385C32.4059 2.40772 31.6714 2.96425 31.0186 3.6092C30.3807 4.29442 29.8019 5.03233 29.2882 5.81505C29.2127 5.94719 29.192 6.10369 29.2306 6.25093C29.2692 6.39816 29.364 6.52437 29.4947 6.60245C29.6272 6.67645 29.7831 6.69629 29.9299 6.65781C30.0767 6.61932 30.2029 6.5255 30.2821 6.39601C30.7076 5.75242 31.1798 5.14096 31.695 4.56659C32.2046 4.03345 32.7798 3.56706 33.4067 3.17858C34.6303 2.40423 35.9793 1.84871 37.3933 1.5369C38.8116 1.23327 40.2623 1.10763 41.7117 1.16286C43.051 1.18404 44.3793 1.40855 45.6511 1.82869C47.1517 2.349 48.4955 3.24201 49.5564 4.42393C50.0549 4.97371 50.8667 4.15803 50.3702 3.61016L50.369 3.6104Z" fill="#0A6D9A"/>
<path d="M55.4508 19.1991C55.7638 18.0021 55.9458 16.7746 55.9937 15.5383C56.0096 14.3619 55.9283 13.1861 55.7506 12.0231C55.5089 10.3404 55.0037 8.67357 54.0242 7.26757C53.5046 6.53559 52.9039 5.86463 52.2337 5.26744C51.686 4.77064 50.8699 5.58225 51.4199 6.08121C52.4955 7.05706 53.3936 8.15279 53.9209 9.47918C54.6143 11.2225 54.8205 13.1632 54.8459 15.0259C54.8437 16.3312 54.6745 17.6308 54.3424 18.8931C54.1662 19.6124 55.2758 19.9193 55.452 19.1991H55.4508Z" fill="#0A6D9A"/>
<path d="M29.9529 19.1641C29.5739 18.8256 29.1026 18.6077 28.5993 18.5382C28.0959 18.4687 27.5833 18.5507 27.1267 18.7737C26.8048 18.95 26.526 19.1956 26.3104 19.4927C26.0948 19.7897 25.9478 20.1309 25.8799 20.4917C25.6969 21.3481 25.6885 22.2326 25.8551 23.0924C26.0217 23.9521 26.3599 24.7695 26.8496 25.4956C27.5514 26.5422 28.5687 27.3097 29.8807 27.1303C30.0274 27.089 30.1519 26.9916 30.2271 26.859C30.3024 26.7265 30.3223 26.5696 30.2825 26.4225C30.2386 26.2776 30.1406 26.1551 30.0089 26.0803C29.8772 26.0055 29.7217 25.9842 29.5747 26.0207C28.6557 26.1461 27.9443 25.1618 27.5725 24.4608C27.1968 23.7786 26.9668 23.0259 26.8968 22.2503C26.8586 21.82 26.8776 21.3865 26.9534 20.9611C27.0097 20.6561 27.1205 20.3637 27.2804 20.098C27.2435 20.1473 27.3598 20.0107 27.3737 19.9956C27.4071 19.9534 27.4476 19.9174 27.4936 19.8894C27.6436 19.7865 27.8143 19.7177 27.9937 19.6877C28.1941 19.6448 28.4016 19.6487 28.6002 19.6991C28.7988 19.7496 28.983 19.8452 29.1386 19.9786C29.6867 20.4744 30.5031 19.663 29.9524 19.1648L29.9529 19.1641Z" fill="#0A6D9A"/>
<path d="M53.2997 19.9779C53.5682 19.7517 53.9146 19.6395 54.2647 19.6654C54.6149 19.6912 54.941 19.853 55.1734 20.1162C55.095 20.0169 55.2036 20.1689 55.2161 20.1881C55.2613 20.261 55.3009 20.3371 55.3346 20.4159C55.4021 20.5917 55.4526 20.7735 55.4854 20.959C55.5611 21.3843 55.5801 21.8179 55.542 22.2482C55.4733 23.0099 55.2504 23.7497 54.8867 24.4224C54.5146 25.1348 53.7984 26.1475 52.8647 26.02C52.7177 25.9846 52.5628 26.0064 52.4313 26.081C52.2998 26.1557 52.2017 26.2775 52.1567 26.4218C52.1172 26.569 52.1373 26.7257 52.2125 26.8582C52.2878 26.9907 52.4122 27.0882 52.5588 27.1296C54.6786 27.4193 55.9098 25.3299 56.4593 23.5847C56.7252 22.6877 56.7818 21.7417 56.6247 20.8194C56.585 20.4509 56.472 20.0941 56.2924 19.7699C56.1128 19.4457 55.8702 19.1606 55.5789 18.9315C55.1106 18.6218 54.5527 18.4765 53.9928 18.5184C53.433 18.5603 52.9029 18.787 52.4859 19.1629C51.9344 19.6609 52.7513 20.4727 53.2997 19.9767V19.9779Z" fill="#0A6D9A"/>
<path d="M52.2281 25.5409C52.1184 26.053 51.9732 26.5568 51.7937 27.0488C51.7383 27.2042 51.6424 27.461 51.6007 27.5581C51.559 27.6552 51.5139 27.7499 51.4743 27.8458C51.4647 27.8698 51.4103 28.0091 51.4484 27.9153C51.4887 27.8168 51.4244 27.9717 51.4149 27.9904C51.3933 28.0383 51.371 28.0863 51.3484 28.1328C51.2895 28.256 51.2286 28.3776 51.1633 28.4984C51.0195 28.771 50.8646 29.0384 50.7037 29.3016C49.8756 30.7077 48.8163 31.9641 47.5704 33.018C46.8971 33.5935 46.1006 34.0067 45.2423 34.2257C44.5211 34.3921 44.8263 35.502 45.5482 35.3354C47.3122 34.9278 48.7808 33.6414 49.9338 32.304C50.9262 31.1873 51.7567 29.9366 52.401 28.5888C52.4626 28.4533 52.5168 28.315 52.5746 28.1781C52.4984 28.3589 52.6729 27.9537 52.6775 27.9426C52.7254 27.8277 52.7712 27.7122 52.8149 27.5962C53.0353 27.0275 53.2102 26.4422 53.338 25.8459C53.3748 25.6989 53.3536 25.5434 53.2787 25.4116C53.2039 25.2798 53.0813 25.1819 52.9362 25.1381C52.789 25.0991 52.6325 25.1193 52.5001 25.1944C52.3677 25.2696 52.2701 25.3936 52.2281 25.5399V25.5409Z" fill="#0A6D9A"/>
<path d="M29.0672 25.8054C29.4563 27.5374 30.1575 29.184 31.1366 30.6647C32.1901 32.2455 33.5741 33.7237 35.2481 34.6528C36.1032 35.1293 37.0373 35.4476 38.0054 35.5924C38.1524 35.628 38.3075 35.6063 38.439 35.5317C38.5705 35.457 38.6687 35.335 38.7135 35.1906C38.7529 35.0434 38.7328 34.8866 38.6575 34.7541C38.5823 34.6216 38.458 34.5241 38.3114 34.4825C34.8453 33.9711 32.2532 30.9664 30.9388 27.8866C30.6134 27.1154 30.3583 26.3165 30.1766 25.4994C30.013 24.7775 28.9032 25.083 29.0667 25.8054H29.0672Z" fill="#0A6D9A"/>
<path d="M39.0618 29.4136C39.766 29.7776 40.5503 29.9589 41.3427 29.9411C42.1624 29.9764 42.9707 29.7385 43.6406 29.265C43.7479 29.1567 43.808 29.0105 43.808 28.8581C43.808 28.7057 43.7479 28.5595 43.6406 28.4512C43.5309 28.3468 43.3852 28.2886 43.2338 28.2886C43.0823 28.2886 42.9366 28.3468 42.8269 28.4512C43.0002 28.3162 42.8614 28.4224 42.8168 28.4512C42.7722 28.48 42.7235 28.508 42.6751 28.5334C42.6365 28.5536 42.4641 28.6229 42.6185 28.5653C42.5535 28.5893 42.4893 28.615 42.4231 28.6373C42.2446 28.6939 42.0616 28.7357 41.8762 28.7622C41.9589 28.75 41.8491 28.7643 41.8191 28.7672C41.7654 28.7727 41.7117 28.777 41.658 28.7806C41.5285 28.789 41.3988 28.7922 41.2691 28.7914C41.1531 28.7914 41.037 28.7869 40.9212 28.779C40.868 28.7754 40.815 28.7711 40.7618 28.7658C40.7594 28.7658 40.57 28.7396 40.6795 28.7567C40.5069 28.7304 40.3363 28.6925 40.1688 28.6433C40.0969 28.6219 40.0276 28.5953 39.9569 28.5713C39.9332 28.5651 39.9102 28.5561 39.8885 28.5447C40.0046 28.6234 39.949 28.5718 39.9024 28.5497C39.8147 28.5085 39.7284 28.4656 39.6428 28.4203C39.5102 28.3465 39.3543 28.3268 39.2076 28.3653C39.0609 28.4037 38.9347 28.4974 38.8554 28.6267C38.78 28.7589 38.7594 28.9153 38.798 29.0625C38.8366 29.2097 38.9313 29.3359 39.0618 29.4141V29.4136Z" fill="#0A6D9A"/>
<path d="M41.0593 24.0284C41.1649 24.4094 41.2494 24.7958 41.3123 25.186L41.2917 25.0331C41.2993 25.0859 41.3008 25.1395 41.2962 25.1928L41.3166 25.0398C41.3132 25.0643 41.3073 25.0884 41.2991 25.1117L41.3571 24.9741C41.3501 24.9903 41.3416 25.0058 41.3317 25.0204L41.4216 24.9038C41.4106 24.9177 41.3979 24.9303 41.384 24.9412L41.5003 24.8513C41.4709 24.8694 41.4403 24.8854 41.4087 24.8993L41.5461 24.8413C41.4966 24.8625 41.4448 24.8776 41.3917 24.8863L41.5446 24.8657C41.4968 24.8714 41.4486 24.8714 41.4008 24.8657L41.5537 24.8863C41.4991 24.8787 41.4454 24.8655 41.3907 24.858C41.2408 24.8231 41.0833 24.8438 40.9474 24.9161C40.8821 24.9542 40.825 25.0048 40.7793 25.065C40.7336 25.1252 40.7002 25.1939 40.681 25.267C40.6618 25.3401 40.6573 25.4163 40.6675 25.4912C40.6778 25.5661 40.7028 25.6382 40.7409 25.7035C40.7775 25.7684 40.8268 25.8252 40.8858 25.8705C40.9449 25.9158 41.0126 25.9487 41.0848 25.9672C41.2075 25.9837 41.3269 26.0152 41.4518 26.0204C41.6391 26.0216 41.824 25.9778 41.9908 25.8926C42.0961 25.845 42.1894 25.7744 42.2638 25.686C42.3382 25.5977 42.3919 25.4938 42.421 25.3819C42.4588 25.1999 42.457 25.0117 42.4155 24.8305C42.3524 24.4576 42.2663 24.0872 42.1702 23.7223C42.1501 23.6494 42.1158 23.5812 42.0694 23.5216C42.023 23.462 41.9652 23.4121 41.8995 23.3748C41.8338 23.3374 41.7614 23.3134 41.6864 23.3041C41.6113 23.2948 41.5352 23.3003 41.4624 23.3204C41.3895 23.3405 41.3213 23.3747 41.2617 23.4212C41.2021 23.4676 41.1522 23.5254 41.1149 23.5911C41.0776 23.6568 41.0536 23.7292 41.0442 23.8042C41.0349 23.8792 41.0404 23.9553 41.0605 24.0282L41.0593 24.0284Z" fill="#0A6D9A"/>
<path d="M34.9213 20.7552C34.728 21.3833 34.8542 22.8284 36.0441 22.9514C37.617 22.9421 37.7007 21.1949 37.171 20.3735C36.7378 19.7009 35.4629 19.4211 34.9213 20.7552Z" fill="#0A6D9A"/>
<path d="M47.5172 20.7552C47.7107 21.3833 47.5846 22.8284 46.3946 22.9514C44.8218 22.9418 44.7378 21.1949 45.2677 20.3735C45.7007 19.7009 46.9756 19.4211 47.5172 20.7552Z" fill="#0A6D9A"/>
<path d="M19.9855 42.1249C20.477 42.2375 20.9398 42.3646 21.4553 42.5205C21.7213 42.6121 21.9643 42.7606 22.1672 42.9556C22.3701 43.1507 22.528 43.3875 22.6301 43.6498C23.009 44.5897 23.0209 45.1771 22.7356 46.2393C22.378 47.486 21.8192 48.666 21.0812 49.7327C20.896 49.9925 20.6873 50.2349 20.4578 50.4568C19.9663 50.9267 20.0311 51.5597 19.9375 52.2766C19.8848 52.6674 19.9256 53.0247 19.904 53.3052C18.5229 53.7895 14.6843 54.1252 12.9028 54.3026C12.6391 53.497 11.5817 51.1785 11.457 51.0538C10.3181 49.9269 9.01378 47.1192 8.96103 44.4698L9.02097 44.465C9.00777 44.2278 9.00777 43.9901 9.02097 43.7529C9.03775 43.4124 9.34945 42.5492 10.0424 42.3718C10.2916 42.2896 10.5606 42.2897 10.8098 42.3722C11.0589 42.4547 11.2749 42.6151 11.4258 42.8298L11.4906 42.8346C11.5115 42.5501 11.5516 42.2673 11.6105 41.9882C11.6939 41.7107 11.8549 41.4628 12.0745 41.2738C12.2941 41.0848 12.5632 40.9624 12.85 40.9212C13.4279 40.8301 13.6533 41.197 13.9434 41.5902C13.9458 41.0987 14.152 40.5232 14.6003 40.2858C15.0895 40.0293 15.9071 39.9502 16.3387 40.4729L16.4849 40.4537C16.1636 38.0488 15.8567 35.4929 15.8495 34.8599C15.8671 34.4639 16.0212 34.0861 16.2856 33.7907C16.55 33.4952 16.9084 33.3004 17.3001 33.2391C18.1009 33.1456 18.9353 34.3253 19.0288 34.8431C19.4532 37.2648 19.7074 39.0367 20.0359 41.9091L19.9855 42.1249Z" fill="white"/>
<path d="M20.6108 41.9095C20.3809 39.8955 20.12 37.8858 19.7875 35.8861C19.7391 35.4364 19.6585 34.9907 19.5463 34.5525C19.4152 34.1849 19.2171 33.8447 18.962 33.5494C18.3647 32.8166 17.5097 32.4411 16.6067 32.8495C16.2116 33.0314 15.8766 33.3221 15.6408 33.6876C15.4049 34.0531 15.2782 34.4782 15.2753 34.9131C15.2839 35.3116 15.3345 35.7118 15.3762 36.1077C15.5218 37.495 15.7002 38.8789 15.8824 40.2616C16.0742 41.7141 16.266 43.1678 16.4971 44.6146C16.5386 44.7611 16.6362 44.8855 16.7686 44.9607C16.9011 45.0359 17.0578 45.0559 17.2049 45.0164C17.3501 44.9728 17.4729 44.8749 17.5477 44.7431C17.6226 44.6113 17.6437 44.4557 17.6068 44.3086C17.2176 41.8714 16.9103 39.4591 16.6266 37.0049C16.5693 36.509 16.5135 36.0125 16.4686 35.5152C16.4377 35.1711 16.3667 34.7928 16.5137 34.4737C16.5804 34.3273 16.6762 34.196 16.7953 34.0879C16.9144 33.9798 17.0543 33.8971 17.2064 33.8447C17.2576 33.8199 17.3137 33.8067 17.3706 33.806C17.4275 33.8052 17.4839 33.817 17.5358 33.8404C17.6425 33.8908 17.7422 33.9548 17.8324 34.0308C18.0813 34.2454 18.281 34.5111 18.4179 34.8098C18.4472 34.8733 18.4232 34.8206 18.4179 34.8079C18.4279 34.8324 18.4365 34.8575 18.4438 34.8829C18.4637 34.9549 18.4771 35.0234 18.4901 35.0958C18.533 35.3356 18.5738 35.5778 18.6148 35.8187C18.9579 37.8409 19.2269 39.872 19.4597 41.9088C19.4641 42.06 19.5261 42.2039 19.6331 42.3108C19.7401 42.4178 19.8839 42.4799 20.0351 42.4843C20.1875 42.4833 20.3333 42.4224 20.441 42.3147C20.5487 42.207 20.6096 42.0611 20.6106 41.9088L20.6108 41.9095Z" fill="#0A6D9A"/>
<path d="M11.9219 42.5387C11.668 42.1637 11.2843 41.8961 10.8446 41.7875C10.4128 41.6949 9.96234 41.7495 9.56501 41.9424C9.27842 42.1059 9.03192 42.3313 8.84348 42.6021C8.65504 42.873 8.52941 43.1825 8.47575 43.508C8.37787 44.247 8.43503 44.9983 8.64359 45.7139C8.73226 46.1553 8.91847 46.5713 9.18858 46.9314C9.43942 47.218 9.77675 47.4151 10.1496 47.493C11.0333 47.6658 11.8706 47.1026 12.2595 46.3296C12.3329 46.197 12.3524 46.0412 12.314 45.8946C12.2755 45.748 12.1821 45.6218 12.0531 45.5422C11.9209 45.4667 11.7644 45.446 11.6172 45.4846C11.47 45.5232 11.3437 45.618 11.2657 45.7487C11.2164 45.8483 11.1603 45.9444 11.0978 46.0364C11.1539 45.9551 11.0633 46.0731 11.0391 46.0973C11.0197 46.1167 10.9024 46.2129 10.9672 46.1656C10.8591 46.2442 10.7436 46.3121 10.6224 46.3682C10.7097 46.3279 10.6022 46.3682 10.567 46.3788C10.5567 46.3816 10.4756 46.3898 10.5409 46.3843C10.6061 46.3788 10.4979 46.3814 10.4867 46.3809C10.4601 46.3809 10.4337 46.3795 10.4071 46.3769C10.5121 46.3869 10.4222 46.3783 10.4006 46.3711C10.3486 46.3541 10.2946 46.3438 10.2438 46.3231C10.326 46.3574 10.2061 46.2951 10.1819 46.2831C10.1819 46.2831 10.103 46.2328 10.1481 46.2646C10.1865 46.292 10.1057 46.2282 10.0978 46.2203C10.0757 46.1989 9.99659 46.1098 10.0115 46.1301C10.0263 46.1505 9.9635 46.0455 9.95032 46.0182C9.88783 45.869 9.83568 45.7156 9.79423 45.5593C9.63668 45.0453 9.56618 44.5085 9.58563 43.9713C9.58563 43.9161 9.58995 43.8612 9.59139 43.8063C9.59354 43.7078 9.60841 43.7262 9.58347 43.8128C9.60985 43.7217 9.62304 43.6284 9.65373 43.538C9.66691 43.4989 9.70671 43.4076 9.66619 43.4965C9.68753 43.4498 9.70983 43.4037 9.73429 43.3589C9.75874 43.3141 9.78632 43.2666 9.81533 43.2225C9.82995 43.1999 9.8453 43.1776 9.86112 43.1561C9.91363 43.0841 9.80981 43.2103 9.87239 43.1453C9.89637 43.1191 9.92226 43.0925 9.94744 43.0664C9.95439 43.0594 10.0335 42.9897 9.99276 43.022C9.97286 43.0379 10.0853 42.9645 10.1186 42.947C10.1088 42.9523 10.0467 42.9729 10.1102 42.9501C10.1482 42.9369 10.1869 42.9256 10.226 42.9165C10.274 42.9008 10.3243 42.8933 10.3747 42.8942C10.4872 42.8787 10.6019 42.8954 10.7053 42.9422C10.7912 42.9843 10.8671 43.0441 10.9281 43.1177C11.0083 43.2459 11.1344 43.3387 11.2807 43.377C11.427 43.4154 11.5824 43.3965 11.7152 43.3241C11.8463 43.2465 11.9414 43.1203 11.9801 42.9729C12.0187 42.8256 11.9977 42.669 11.9217 42.537L11.9219 42.5387Z" fill="#0A6D9A"/>
<path d="M14.4404 41.2991C14.2347 40.9523 13.9436 40.6639 13.5948 40.4616C13.3654 40.3701 13.1189 40.3296 12.8723 40.3429C12.6257 40.3561 12.385 40.4228 12.1667 40.5383C11.7953 40.7145 11.4824 40.9938 11.2654 41.343C11.0694 41.7133 10.9594 42.1231 10.9437 42.5418C10.8391 43.4803 10.9054 44.43 11.1393 45.3449C11.209 45.6758 11.33 45.9938 11.4978 46.2874C11.7733 46.6986 12.1971 46.9873 12.6805 47.0933C13.6094 47.2928 14.8454 46.6509 14.9756 45.6535C14.9749 45.5011 14.914 45.3551 14.8063 45.2474C14.6985 45.1396 14.5525 45.0787 14.4001 45.078C14.2487 45.0818 14.1045 45.1436 13.9973 45.2507C13.8902 45.3578 13.8284 45.502 13.8247 45.6535C13.8518 45.4466 13.8655 45.5293 13.8029 45.6019C13.7546 45.6561 13.7011 45.7054 13.6432 45.7492C13.5453 45.819 13.4417 45.8807 13.3337 45.9335C13.1929 45.9882 13.0387 45.9981 12.8921 45.9618C12.7455 45.9255 12.6137 45.8449 12.5146 45.7309C12.4626 45.667 12.422 45.5946 12.3947 45.5168C12.3417 45.373 12.2964 45.2243 12.2573 45.0749C12.1673 44.729 12.1067 44.3761 12.0763 44.02C12.0375 43.5787 12.038 43.1348 12.0778 42.6936C12.0958 42.4928 12.1278 42.2935 12.1737 42.0973C12.1821 42.0665 12.1921 42.0361 12.2036 42.0064C12.183 42.056 12.1818 42.0615 12.2005 42.0234C12.2319 41.9625 12.2679 41.9041 12.3082 41.8486C12.2669 41.9019 12.3753 41.7789 12.3861 41.7681C12.4342 41.7189 12.4878 41.6753 12.5458 41.6384C12.6624 41.5583 12.7959 41.5062 12.9359 41.4861C13.0637 41.4724 13.0958 41.4811 13.1713 41.5465C13.2748 41.647 13.3667 41.7588 13.4451 41.8798C13.5252 42.0082 13.6514 42.1012 13.7978 42.1396C13.9442 42.1779 14.0997 42.1589 14.2325 42.0862C14.3634 42.0084 14.4584 41.8822 14.4971 41.735C14.5357 41.5877 14.5148 41.4311 14.439 41.2991H14.4404Z" fill="#0A6D9A"/>
<path d="M16.7446 40.0665C16.1567 39.4013 15.148 39.392 14.3922 39.75C13.625 40.1137 13.2979 41.0478 13.3852 41.8503C13.4826 42.7483 13.6363 43.6428 13.8122 44.5283C13.8911 44.9253 13.9345 45.3195 14.2268 45.6243C14.5295 45.9274 14.9168 46.1317 15.3379 46.2105C15.6088 46.2634 15.888 46.2567 16.156 46.1908C16.4241 46.1249 16.6746 46.0015 16.8901 45.829C17.1388 45.588 17.3412 45.3036 17.4876 44.9898C17.8595 44.3477 16.8642 43.767 16.4938 44.4091C16.4276 44.5235 16.3706 44.6431 16.302 44.7565C16.2905 44.776 16.1715 44.9378 16.2399 44.8577C16.2243 44.8762 16.0852 45.0016 16.144 44.9601C16.0256 45.0388 15.8885 45.0849 15.7467 45.0939C15.6048 45.1028 15.463 45.0742 15.3357 45.0109C15.2476 44.9719 15.1647 44.922 15.089 44.8623C15.1209 44.8824 15.1113 44.8716 15.0605 44.8304C15.0125 44.7768 15.0086 44.7756 15.0487 44.8268C15.0144 44.7672 15.0168 44.7767 15.0559 44.8553C15.0454 44.8093 15.0351 44.7631 15.025 44.7167C15.0034 44.6178 14.9825 44.5186 14.9622 44.4192C14.8762 44.0014 14.798 43.5819 14.7277 43.1609C14.6622 42.7732 14.6004 42.3848 14.5531 41.9944C14.4856 41.6839 14.514 41.3603 14.6346 41.0663C14.6985 40.9579 14.7859 40.8652 14.8904 40.7951C14.9949 40.7251 15.1138 40.6794 15.2383 40.6615C15.3628 40.6436 15.4898 40.6539 15.6098 40.6917C15.7298 40.7295 15.8397 40.7937 15.9315 40.8798C16.4231 41.4358 17.2347 40.6191 16.7453 40.066L16.7446 40.0665Z" fill="#0A6D9A"/>
<path d="M20.1054 44.9438C19.5381 44.7206 18.8586 44.5074 18.3719 44.13C18.1772 43.9646 18.0355 43.7457 17.9643 43.5004C17.9318 43.4062 17.9169 43.3068 17.9204 43.2071C17.9245 43.0393 17.8981 43.2479 17.9333 43.0904C17.9333 43.0904 17.9858 42.9324 17.9636 42.9822C18.123 42.6226 18.5498 42.4898 18.9866 42.5161C19.6853 42.5583 20.4183 42.813 21.0868 43.0108C21.3322 43.0714 21.5583 43.1932 21.744 43.3648C21.9297 43.5364 22.0689 43.7522 22.1487 43.9921C22.3565 44.5265 22.4032 45.1099 22.2832 45.6705C21.9953 46.9482 21.4677 48.1596 20.7283 49.2406C20.3329 49.8276 19.7213 50.2477 19.5311 50.9557C19.3276 51.7136 19.3743 52.5302 19.3283 53.3054L19.7508 52.7503C18.7198 53.1042 17.5888 53.2164 16.5122 53.3481C15.3113 53.4951 14.1064 53.607 12.9023 53.7264L13.4574 54.1489C13.0814 53.0541 12.619 51.9908 12.0744 50.9694C11.9883 50.8102 11.8805 50.6638 11.7541 50.5344C11.5393 50.2986 11.3467 50.0435 11.1786 49.7724C10.1857 48.1745 9.62018 46.3482 9.53623 44.4688C9.51681 43.7296 8.36569 43.7267 8.38535 44.4688C8.45281 46.3531 8.96586 48.1947 9.88245 49.8425C10.0643 50.1763 10.2688 50.4973 10.4946 50.8032C10.6085 50.9557 10.7257 51.107 10.8514 51.2501C10.8945 51.2981 10.9377 51.3487 10.9839 51.394C11.0559 51.4659 11.0113 51.4849 11.012 51.4117C11.012 51.4398 10.9686 51.3187 10.988 51.3844C11.0589 51.55 11.1417 51.7102 11.2357 51.8639C11.3666 52.1344 11.492 52.4075 11.6155 52.6815C11.8898 53.2599 12.1337 53.8521 12.3463 54.4558C12.3812 54.5764 12.454 54.6827 12.5539 54.7587C12.6538 54.8348 12.7755 54.8767 12.9011 54.8783C14.1333 54.756 15.3662 54.6416 16.595 54.4896C17.7422 54.3479 18.9555 54.2386 20.0555 53.8612C20.175 53.8243 20.28 53.751 20.3557 53.6515C20.4315 53.552 20.4742 53.4314 20.478 53.3064C20.502 52.8968 20.4921 52.4931 20.5348 52.0836C20.5349 51.7466 20.5898 51.4119 20.6974 51.0926C20.8309 50.8061 21.1529 50.5718 21.3491 50.3253C21.5711 50.0463 21.7749 49.7532 21.959 49.4478C22.3595 48.7769 22.7011 48.0726 22.9802 47.3429C23.2933 46.6075 23.4719 45.822 23.5077 45.0236C23.5134 44.2115 23.2529 43.4199 22.7661 42.7698C22.275 42.1551 21.5975 41.952 20.8659 41.7532C20.0855 41.5408 19.2355 41.2737 18.4203 41.4048C18.1065 41.448 17.8078 41.5667 17.55 41.7508C17.2922 41.9349 17.0829 42.1789 16.9402 42.4617C16.5825 43.2414 16.8371 44.1307 17.3771 44.7611C17.6857 45.0778 18.0571 45.3265 18.4675 45.4912C18.902 45.6983 19.3496 45.8786 19.7975 46.0551C19.9451 46.0951 20.1026 46.0751 20.2355 45.9995C20.3684 45.9239 20.4661 45.7989 20.5072 45.6516C20.5443 45.5045 20.5232 45.3488 20.4484 45.2169C20.3735 45.085 20.2507 44.9873 20.1054 44.9438Z" fill="#0A6D9A"/>
</g>
<defs>
<clipPath id="clip0_309_1319">
<rect width="77.8302" height="77.8302" fill="white"/>
</clipPath>
</defs>
</svg>
