<svg width="70" height="70" viewBox="0 0 70 70" fill="none" xmlns="http://www.w3.org/2000/svg">
<path d="M27.0858 32.1492H26.732V32.503V34.6698V35.0236H27.0858H29.2527H29.6064V34.6698V32.503V32.1492H29.2527H27.0858ZM37.9201 44.7745H38.2739V44.4207V42.2538V41.9001H37.9201H29.6064V36.8367V36.4829H29.2527H27.0858H26.732V36.8367V43.3373C26.732 43.7184 26.8835 44.084 27.153 44.3535C27.4225 44.6231 27.7881 44.7745 28.1692 44.7745H37.9201ZM42.2539 44.7745H42.6076V44.4207V42.2538V41.9001H42.2539H40.087H39.7332V42.2538V44.4207V44.7745H40.087H42.2539ZM42.2539 40.4407H42.6076V40.087V33.5864C42.6076 33.2052 42.4562 32.8397 42.1867 32.5701C41.9171 32.3006 41.5516 32.1492 41.1704 32.1492H31.4195H31.0658V32.503V34.6698V35.0236H31.4195H39.7332V40.087V40.4407H40.087H42.2539ZM26.0024 30.6899H43.3373C43.5308 30.6899 43.7164 30.7667 43.8532 30.9036C43.9901 31.0404 44.0669 31.226 44.0669 31.4195V44.4207C44.0669 44.6142 43.9901 44.7998 43.8532 44.9366C43.7164 45.0735 43.5308 45.1504 43.3373 45.1504H26.0024C25.8089 45.1504 25.6233 45.0735 25.4864 44.9366C25.3496 44.7998 25.2727 44.6142 25.2727 44.4207V31.4195C25.2727 31.226 25.3496 31.0404 25.4864 30.9036C25.6233 30.7667 25.8089 30.6899 26.0024 30.6899Z" fill="#0A6D9A" stroke="#0A6D9A" stroke-width="0.707547"/>
<path d="M48.4007 28.1692V47.671C48.4007 48.1518 48.2096 48.613 47.8696 48.953C47.5296 49.2931 47.0684 49.4841 46.5876 49.4841H22.7521C22.2712 49.4841 21.81 49.2931 21.47 48.953C21.13 48.613 20.939 48.1518 20.939 47.671V28.1692C20.939 27.6884 21.13 27.2272 21.47 26.8872C21.81 26.5471 22.2712 26.3561 22.7521 26.3561H46.5876C47.0684 26.3561 47.5296 26.5471 47.8696 26.8872C48.2096 27.2272 48.4007 27.6884 48.4007 28.1692ZM26.0024 48.0248H43.3373C44.2931 48.0248 45.2098 47.645 45.8857 46.9691C46.5616 46.2933 46.9413 45.3765 46.9413 44.4207V31.4195C46.9413 30.4636 46.5616 29.5469 45.8857 28.871C45.2098 28.1952 44.2931 27.8154 43.3373 27.8154H26.0024C25.0465 27.8154 24.1298 28.1952 23.4539 28.871C22.778 29.5469 22.3983 30.4636 22.3983 31.4195V44.4207C22.3983 45.3765 22.778 46.2933 23.4539 46.9691C24.1298 47.645 25.0465 48.0248 26.0024 48.0248Z" stroke="#0A6D9A" stroke-width="0.707547"/>
<path d="M38.5074 61.8451L38.5765 62.1094H38.8497H66.819V63.5687H38.8497H38.5747L38.5069 63.8352C38.2898 64.6881 37.7947 65.4444 37.0998 65.9846C36.405 66.5247 35.5499 66.818 34.6698 66.818C33.7897 66.818 32.9347 66.5247 32.2398 65.9846C31.5449 65.4444 31.0499 64.6881 30.8328 63.8352L30.7649 63.5687H30.4899H2.52064V62.1094H30.4899H30.7631L30.8322 61.8451C31.011 61.1613 31.3687 60.5374 31.8685 60.0377C32.3682 59.5379 32.9921 59.1802 33.6759 59.0014L33.9402 58.9323V58.6591V51.2751H35.3995V58.6591V58.9323L35.6638 59.0014C36.3476 59.1802 36.9714 59.5379 37.4712 60.0377C37.971 60.5374 38.3286 61.1613 38.5074 61.8451ZM33.2694 64.9349C33.6839 65.2118 34.1713 65.3597 34.6698 65.3597C35.3383 65.3597 35.9795 65.0941 36.4522 64.6214C36.9249 64.1487 37.1905 63.5075 37.1905 62.839C37.1905 62.3405 37.0426 61.8532 36.7657 61.4386C36.4887 61.0241 36.095 60.701 35.6344 60.5103C35.1738 60.3195 34.667 60.2696 34.1781 60.3668C33.6891 60.4641 33.24 60.7041 32.8875 61.0567C32.5349 61.4092 32.2949 61.8583 32.1976 62.3473C32.1004 62.8362 32.1503 63.343 32.3411 63.8036C32.5318 64.2642 32.8549 64.6579 33.2694 64.9349Z" stroke="#0A6D9A" stroke-width="0.707547"/>
<path d="M23.1058 51.2751H24.5652V54.9012H23.1058V51.2751Z" stroke="#0A6D9A" stroke-width="0.707547"/>
<path d="M27.4396 51.2751H28.8989V54.9012H27.4396V51.2751Z" stroke="#0A6D9A" stroke-width="0.707547"/>
<path d="M40.4407 51.2751H41.9001V54.9012H40.4407V51.2751Z" stroke="#0A6D9A" stroke-width="0.707547"/>
<path d="M44.7745 51.2751H46.2338V54.9012H44.7745V51.2751Z" stroke="#0A6D9A" stroke-width="0.707547"/>
<path d="M15.5218 33.5864V33.2326H15.1681H9.7509C8.40801 33.2326 7.12011 32.6991 6.17054 31.7496C5.22098 30.8 4.68751 29.5121 4.68751 28.1692C4.68751 26.8263 5.22098 25.5384 6.17054 24.5889C7.12011 23.6393 8.40801 23.1058 9.7509 23.1058H13.0012C13.3824 23.1058 13.7479 22.9544 14.0175 22.6849C14.287 22.4154 14.4384 22.0498 14.4384 21.6686V17.8768C14.4384 17.8767 14.4384 17.8767 14.4384 17.8766C14.4392 15.9066 15.0255 13.9812 16.1228 12.345C17.2201 10.7088 18.779 9.43558 20.6014 8.68712C22.4238 7.93865 24.4275 7.74868 26.3581 8.14133C28.2887 8.53398 30.059 9.49154 31.4443 10.8924L31.4444 10.8925C31.6077 11.0576 31.8087 11.1806 32.0299 11.251C32.2512 11.3214 32.4863 11.3372 32.715 11.2969C32.9437 11.2567 33.1593 11.1616 33.3432 11.0198C33.5272 10.8781 33.674 10.6938 33.7712 10.4829L33.7716 10.482C34.5943 8.68373 35.9355 7.17225 37.6232 6.14149C39.3109 5.11073 41.2681 4.60771 43.2436 4.69697C45.2192 4.78624 47.123 5.4637 48.7108 6.64246C50.2987 7.82122 51.4982 9.4475 52.1554 11.3127L52.1554 11.3129C52.2544 11.5933 52.438 11.836 52.6807 12.0077C52.9234 12.1794 53.2134 12.2715 53.5107 12.2715H54.1716C56.9512 12.2715 59.617 13.3757 61.5825 15.3412C63.5479 17.3067 64.6521 19.9725 64.6521 22.7521C64.6521 25.5317 63.5479 28.1974 61.5825 30.1629C59.617 32.1284 56.9512 33.2326 54.1716 33.2326H53.8178V33.5864V34.316H50.1916V32.8567H50.9213H51.2751V32.5029V30.3361V29.9823H50.9213H50.1916V28.523H50.9213H51.2751V28.1692C51.2751 26.926 50.7812 25.7337 49.9021 24.8547C49.1068 24.0594 48.0552 23.5793 46.9413 23.4951V20.5852V20.2314H46.5876H44.4207H44.0669V20.5852V23.4817H42.6076V20.5852V20.2314H42.2538H40.087H39.7332V20.5852V23.4817H38.2739V20.5852V20.2314H37.9201H35.7533H35.3995V20.5852V23.4817H33.9402V20.5852V20.2314H33.5864H31.4195H31.0658V20.5852V23.4817H29.6064V20.5852V20.2314H29.2527H27.0858H26.732V20.5852V23.4817H25.2727V20.5852V20.2314H24.9189H22.7521H22.3983V20.5852V23.4951C21.2845 23.5793 20.2328 24.0594 19.4375 24.8547C18.5584 25.7337 18.0646 26.926 18.0646 28.1692V28.523H18.4184H19.148V29.9823H18.4184H18.0646V30.3361V32.5029V32.8567H18.4184H19.148V34.316H15.5218V33.5864ZM60.6722 26.3561H61.026V26.0024V23.8355V23.4817H60.6722H58.5053H58.1515V23.8355V26.0024V26.3561H58.5053H60.6722ZM54.1719 14.8143L53.8178 14.8139V15.168V17.3349V17.6887H54.1716C55.2271 17.6887 56.2395 18.108 56.9858 18.8544C57.7322 19.6008 58.1515 20.6131 58.1515 21.6686V22.0224H58.5053H60.6722H61.0263L61.026 21.6683C61.0241 19.851 60.3014 18.1088 59.0165 16.8238C57.7315 15.5388 55.9892 14.8161 54.1719 14.8143Z" stroke="#0A6D9A" stroke-width="0.707547"/>
<path d="M50.1916 37.1904H53.8178V38.6498H50.1916V37.1904Z" stroke="#0A6D9A" stroke-width="0.707547"/>
<path d="M50.1916 41.5242H53.8178V42.9835H50.1916V41.5242Z" stroke="#0A6D9A" stroke-width="0.707547"/>
<path d="M50.1916 45.8579H53.8178V47.3172H50.1916V45.8579Z" stroke="#0A6D9A" stroke-width="0.707547"/>
<path d="M15.5218 37.1904H19.148V38.6498H15.5218V37.1904Z" stroke="#0A6D9A" stroke-width="0.707547"/>
<path d="M15.5218 41.5242H19.148V42.9835H15.5218V41.5242Z" stroke="#0A6D9A" stroke-width="0.707547"/>
<path d="M15.5218 45.8579H19.148V47.3172H15.5218V45.8579Z" stroke="#0A6D9A" stroke-width="0.707547"/>
</svg>
