<svg width="80" height="80" viewBox="0 0 80 80" fill="none" xmlns="http://www.w3.org/2000/svg">
<path d="M40 73.3333C58.4093 73.3333 73.3333 58.4093 73.3333 40C73.3333 21.5905 58.4093 6.66666 40 6.66666C21.5905 6.66666 6.66663 21.5905 6.66663 40C6.66663 58.4093 21.5905 73.3333 40 73.3333Z" stroke="#0A6D9A" stroke-width="3.75" stroke-linecap="round" stroke-linejoin="round"/>
<path d="M26.6665 10H29.9999C23.4999 29.4667 23.4999 50.5333 29.9999 70H26.6665" stroke="#0A6D9A" stroke-width="3.75" stroke-linecap="round" stroke-linejoin="round"/>
<path d="M50 10C56.5 29.4667 56.5 50.5333 50 70" stroke="#0A6D9A" stroke-width="3.75" stroke-linecap="round" stroke-linejoin="round"/>
<path d="M10 53.3333V50C29.4667 56.5 50.5333 56.5 70 50V53.3333" stroke="#0A6D9A" stroke-width="3.75" stroke-linecap="round" stroke-linejoin="round"/>
<path d="M10 30.0003C29.4667 23.5003 50.5333 23.5003 70 30.0003" stroke="#0A6D9A" stroke-width="3.75" stroke-linecap="round" stroke-linejoin="round"/>
</svg>
