<svg width="28" height="28" viewBox="0 0 28 28" fill="none" xmlns="http://www.w3.org/2000/svg">
<path fill-rule="evenodd" clip-rule="evenodd" d="M14.0011 0.666992C10.3799 0.666992 9.92549 0.682826 8.50325 0.747549C7.08379 0.812549 6.11489 1.03727 5.26711 1.367C4.39015 1.70756 3.64626 2.16312 2.90514 2.90452C2.16346 3.64563 1.7079 4.38953 1.36623 5.26621C1.03567 6.11427 0.810672 7.08345 0.746783 8.50235C0.683171 9.92459 0.666504 10.3793 0.666504 14.0005C0.666504 17.6216 0.682615 18.0747 0.74706 19.4969C0.812339 20.9164 1.03706 21.8853 1.36651 22.7331C1.70735 23.61 2.16291 24.3539 2.90431 25.095C3.64515 25.8367 4.38904 26.2934 5.26544 26.6339C6.11378 26.9637 7.08296 27.1884 8.50214 27.2534C9.92438 27.3181 10.3786 27.3339 13.9994 27.3339C17.6208 27.3339 18.0739 27.3181 19.4961 27.2534C20.9156 27.1884 21.8856 26.9637 22.734 26.6339C23.6106 26.2934 24.3534 25.8367 25.0943 25.095C25.8359 24.3539 26.2915 23.61 26.6332 22.7333C26.9609 21.8853 27.1859 20.9161 27.2526 19.4972C27.3165 18.075 27.3332 17.6216 27.3332 14.0005C27.3332 10.3793 27.3165 9.92487 27.2526 8.50263C27.1859 7.08317 26.9609 6.11427 26.6332 5.26648C26.2915 4.38953 25.8359 3.64563 25.0943 2.90452C24.3526 2.16284 23.6109 1.70728 22.7331 1.367C21.8831 1.03727 20.9137 0.812549 19.4942 0.747549C18.072 0.682826 17.6192 0.666992 13.9969 0.666992H14.0011ZM12.8049 3.06976C13.1599 3.0692 13.556 3.06976 14.001 3.06976C17.5611 3.06976 17.983 3.08254 19.3889 3.14642C20.6889 3.20587 21.3944 3.42309 21.8644 3.6056C22.4867 3.84727 22.9303 4.13616 23.3967 4.60283C23.8634 5.0695 24.1522 5.51395 24.3945 6.13618C24.577 6.60563 24.7945 7.31119 24.8536 8.6112C24.9175 10.0168 24.9314 10.439 24.9314 13.9974C24.9314 17.5557 24.9175 17.978 24.8536 19.3835C24.7942 20.6836 24.577 21.3891 24.3945 21.8586C24.1528 22.4808 23.8634 22.9239 23.3967 23.3902C22.93 23.8569 22.487 24.1458 21.8644 24.3875C21.395 24.5708 20.6889 24.7875 19.3889 24.8469C17.9833 24.9108 17.5611 24.9247 14.001 24.9247C10.4407 24.9247 10.0188 24.9108 8.6132 24.8469C7.31318 24.7869 6.60762 24.5697 6.13734 24.3872C5.51511 24.1455 5.07066 23.8566 4.60399 23.39C4.13732 22.9233 3.84842 22.48 3.6062 21.8575C3.4237 21.388 3.2062 20.6824 3.14703 19.3824C3.08314 17.9769 3.07036 17.5546 3.07036 13.994C3.07036 10.4334 3.08314 10.0134 3.14703 8.60787C3.20647 7.30786 3.4237 6.60229 3.6062 6.13229C3.84787 5.51006 4.13732 5.06561 4.60399 4.59894C5.07066 4.13227 5.51511 3.84338 6.13734 3.60115C6.60734 3.41782 7.31318 3.20115 8.6132 3.14142C9.84321 3.08587 10.3199 3.0692 12.8049 3.06642V3.06976ZM21.1183 5.28367C20.235 5.28367 19.5183 5.99952 19.5183 6.88314C19.5183 7.76648 20.235 8.48315 21.1183 8.48315C22.0017 8.48315 22.7184 7.76648 22.7184 6.88314C22.7184 5.99979 22.0017 5.28367 21.1183 5.28367ZM14.0011 7.15313C10.2197 7.15313 7.15382 10.219 7.15382 14.0004C7.15382 17.7819 10.2197 20.8463 14.0011 20.8463C17.7825 20.8463 20.8473 17.7819 20.8473 14.0004C20.8473 10.219 17.7825 7.15313 14.0011 7.15313ZM14.0011 9.55594C16.4555 9.55594 18.4455 11.5457 18.4455 14.0004C18.4455 16.4549 16.4555 18.4449 14.0011 18.4449C11.5463 18.4449 9.55657 16.4549 9.55657 14.0004C9.55657 11.5457 11.5463 9.55594 14.0011 9.55594Z" fill="white"/>
</svg>
