<svg width="86" height="86" viewBox="0 0 86 86" fill="none" xmlns="http://www.w3.org/2000/svg">
<path d="M43.7166 66.302C46.2487 66.3034 48.7717 66.0085 51.2359 65.4237V82.368L43.9142 79.2702L43.7166 79.1866L43.519 79.2702L36.1972 82.3682V65.4237C38.6615 66.0085 41.1845 66.3034 43.7166 66.302ZM43.7166 66.302C43.7165 66.302 43.7164 66.302 43.7163 66.302L43.7166 65.795L43.7169 66.302C43.7168 66.302 43.7167 66.302 43.7166 66.302ZM50.6989 43.4709L51.6097 43.9577L51.4379 42.9394L50.1026 35.0241L55.7578 29.42L56.4779 28.7063L55.475 28.5582L47.6663 27.4045L44.1728 20.2078L43.7166 19.2681L43.2604 20.2078L39.767 27.4045L31.9584 28.5582L30.9554 28.7063L31.6755 29.42L37.3308 35.0241L35.9954 42.9394L35.8236 43.9578L36.7344 43.4709L43.7166 39.7391L50.6989 43.4709ZM61.5566 77.0311L56.8384 75.0347V63.5395C58.4772 62.8154 60.055 61.9575 61.5566 60.9744V77.0311ZM25.8768 76.9098V60.9745C27.3783 61.9576 28.9561 62.8155 30.5949 63.5395V74.9134L25.8768 76.9098ZM16.2737 32.7152C16.2737 17.3191 28.5929 4.80708 43.7166 4.80708C58.8405 4.80708 71.1596 17.3189 71.1596 32.7151C71.1596 48.1112 58.8403 60.6232 43.7166 60.6232C28.5929 60.6232 16.2737 48.1113 16.2737 32.7152ZM21.0514 32.599C21.0514 45.2924 31.2107 55.6329 43.7166 55.6329C56.2226 55.6329 66.3818 45.2925 66.3818 32.599C66.3818 19.9054 56.2225 9.56484 43.7166 9.56484C31.2107 9.56484 21.0514 19.9054 21.0514 32.599ZM26.6537 32.599C26.6537 23.0216 34.3165 15.2435 43.7166 15.2435C53.1168 15.2435 60.7795 23.0216 60.7795 32.5988C60.7795 42.1761 53.1167 49.9541 43.7166 49.9541C34.3165 49.9541 26.6537 42.1763 26.6537 32.599Z" stroke="#0A6D9A" stroke-width="1.01415"/>
</svg>
