<svg width="54" height="54" viewBox="0 0 54 54" fill="none" xmlns="http://www.w3.org/2000/svg">
<rect x="2" y="2" width="50" height="50" rx="25" fill="#F7722D"/>
<path opacity="0.1" fill-rule="evenodd" clip-rule="evenodd" d="M2 27C2 13.1929 13.1929 2 27 2C40.8071 2 52 13.1929 52 27C52 40.8071 40.8071 52 27 52C13.1929 52 2 40.8071 2 27Z" stroke="#696969" stroke-width="3"/>
<path fill-rule="evenodd" clip-rule="evenodd" d="M40.3334 26.9815C40.3334 27.8832 40.2416 28.7837 40.0612 29.6614C39.8854 30.5183 39.625 31.3595 39.2839 32.1637C38.9505 32.9537 38.5371 33.715 38.054 34.4249C37.5781 35.1304 37.0299 35.7922 36.4276 36.3955C35.824 36.9962 35.16 37.5429 34.4548 38.0209C33.7426 38.5006 32.9802 38.9134 32.1898 39.2483C31.3844 39.5877 30.5412 39.8477 29.6851 40.0232C28.8062 40.204 27.9024 40.2963 26.9994 40.2963C26.0957 40.2963 25.192 40.204 24.3144 40.0232C23.457 39.8477 22.6138 39.5877 21.8091 39.2483C21.0187 38.9134 20.2556 38.5006 19.5433 38.0209C18.8382 37.543 18.1741 36.9962 17.5719 36.3955C16.969 35.7922 16.4208 35.1304 15.9442 34.4249C15.4637 33.715 15.0496 32.9537 14.7149 32.1637C14.3737 31.3595 14.1127 30.5182 13.9362 29.6614C13.7579 28.7837 13.6667 27.8832 13.6667 26.9815C13.6667 26.0791 13.7578 25.1767 13.9363 24.3009C14.1127 23.444 14.3738 22.6015 14.715 21.7986C15.0496 21.008 15.4637 20.2461 15.9442 19.5361C16.4208 18.8301 16.969 18.1695 17.5719 17.5655C18.1742 16.9648 18.8383 16.4194 19.5434 15.9422C20.2556 15.4604 21.0187 15.0476 21.8091 14.7121C22.6139 14.372 23.457 14.1113 24.3145 13.9371C25.1921 13.7577 26.0958 13.6667 26.9995 13.6667C27.9025 13.6667 28.8062 13.7577 29.6851 13.9371C30.5413 14.1114 31.3844 14.3721 32.1898 14.7121C32.9802 15.0475 33.7426 15.4604 34.4549 15.9422C35.16 16.4194 35.8242 16.9648 36.4277 17.5655C37.0299 18.1695 37.5781 18.8301 38.054 19.5361C38.5371 20.2461 38.9505 21.0081 39.2839 21.7986C39.625 22.6015 39.8854 23.444 40.0612 24.3009C40.2416 25.1767 40.3334 26.0791 40.3334 26.9815ZM22.141 16.6969C18.9657 18.1942 16.5958 21.1159 15.8568 24.6371C16.157 24.6397 20.902 24.6995 26.3691 23.249C24.3983 19.7526 22.2927 16.8992 22.141 16.6969ZM27.3125 24.9999C21.4496 26.7526 15.8236 26.6265 15.6218 26.6187C15.6185 26.7409 15.6127 26.8592 15.6127 26.9815C15.6127 29.9025 16.7162 32.5655 18.5301 34.579C18.5262 34.5731 21.6423 29.0528 27.7871 27.0686C27.9356 27.0192 28.0867 26.975 28.2364 26.9321C27.9506 26.2859 27.6387 25.6383 27.3125 24.9999ZM34.5193 18.4478C32.5146 16.6826 29.8824 15.6119 26.9994 15.6119C26.0742 15.6119 25.1764 15.7237 24.3163 15.9305C24.4868 16.1594 26.6257 18.9926 28.573 22.5631C32.8695 20.9547 34.4913 18.4894 34.5193 18.4478ZM29.0126 28.8162C28.9872 28.8246 28.9618 28.8318 28.937 28.8409C22.2187 31.1796 20.0247 35.8928 20.001 35.9443C21.9341 37.4454 24.3587 38.3511 26.9995 38.3511C28.5763 38.3511 30.0783 38.0305 31.4449 37.45C31.2763 36.4566 30.6148 32.9745 29.0126 28.8162ZM33.3623 36.4111C35.9191 34.6882 37.7349 31.9525 38.2415 28.7836C38.0071 28.7082 34.8214 27.7011 31.146 28.2895C32.6396 32.388 33.2464 35.7259 33.3623 36.4111ZM29.4495 24.2574C29.7137 24.7996 29.9697 25.3515 30.206 25.9061C30.29 26.1051 30.372 26.3002 30.4521 26.4952C34.3637 26.0036 38.2175 26.8306 38.3822 26.8644C38.3562 24.169 37.3906 21.6952 35.7929 19.7585C35.7714 19.7889 33.9451 22.424 29.4495 24.2574Z" fill="white"/>
</svg>
