<svg width="54" height="54" viewBox="0 0 54 54" fill="none" xmlns="http://www.w3.org/2000/svg">
<rect x="2" y="2" width="50" height="50" rx="25" fill="#F7722D"/>
<path opacity="0.1" fill-rule="evenodd" clip-rule="evenodd" d="M2 27C2 13.1929 13.1929 2 27 2C40.8071 2 52 13.1929 52 27C52 40.8071 40.8071 52 27 52C13.1929 52 2 40.8071 2 27Z" stroke="#696969" stroke-width="3"/>
<path fill-rule="evenodd" clip-rule="evenodd" d="M37.4184 18.4056C38.5658 18.7205 39.4694 19.6482 39.7761 20.8263C40.3334 22.9615 40.3334 27.4167 40.3334 27.4167C40.3334 27.4167 40.3334 31.8717 39.7761 34.0071C39.4694 35.1852 38.5658 36.113 37.4184 36.428C35.339 37 27 37 27 37C27 37 18.6611 37 16.5815 36.428C15.4341 36.113 14.5305 35.1852 14.2238 34.0071C13.6667 31.8717 13.6667 27.4167 13.6667 27.4167C13.6667 27.4167 13.6667 22.9615 14.2238 20.8263C14.5305 19.6482 15.4341 18.7205 16.5815 18.4056C18.6611 17.8334 27 17.8334 27 17.8334C27 17.8334 35.339 17.8334 37.4184 18.4056ZM24.5 23.6666V32L31.1667 27.8334L24.5 23.6666Z" fill="white"/>
</svg>
