<svg width="54" height="54" viewBox="0 0 54 54" fill="none" xmlns="http://www.w3.org/2000/svg">
<rect x="2" y="2" width="50" height="50" rx="25" fill="#F7722D"/>
<path opacity="0.1" fill-rule="evenodd" clip-rule="evenodd" d="M2 27C2 13.1929 13.1929 2 27 2C40.8071 2 52 13.1929 52 27C52 40.8071 40.8071 52 27 52C13.1929 52 2 40.8071 2 27Z" stroke="#696969" stroke-width="3"/>
<path fill-rule="evenodd" clip-rule="evenodd" d="M26.2513 22.3203L26.3037 23.1854L25.4294 23.0795C22.2467 22.6734 19.4663 21.2964 17.1056 18.9837L15.9514 17.8362L15.6541 18.6836C15.0246 20.5726 15.4268 22.5675 16.7383 23.9092C17.4378 24.6507 17.2804 24.7566 16.0738 24.3152C15.6541 24.174 15.2869 24.0681 15.2519 24.121C15.1295 24.2446 15.5492 25.8512 15.8815 26.4867C16.3361 27.3694 17.2629 28.2345 18.2772 28.7465L19.1341 29.1525L18.1198 29.1702C17.1405 29.1702 17.1056 29.1878 17.2105 29.5585C17.5602 30.7061 18.9417 31.9242 20.4805 32.4538L21.5647 32.8246L20.6204 33.3895C19.2215 34.2016 17.5777 34.6606 15.9339 34.6959C15.147 34.7136 14.5 34.7842 14.5 34.8372C14.5 35.0137 16.6334 36.0023 17.875 36.3907C21.5997 37.5383 26.0239 37.0439 29.3464 35.0843C31.7072 33.6896 34.0679 30.9179 35.1696 28.2345C35.7642 26.8045 36.3587 24.1917 36.3587 22.9382C36.3587 22.1261 36.4112 22.0202 37.3905 21.0492C37.9675 20.4843 38.5096 19.8664 38.6145 19.6898C38.7894 19.3544 38.7719 19.3544 37.8801 19.6545C36.3937 20.1842 36.1839 20.1135 36.9183 19.3191C37.4604 18.7542 38.1074 17.7302 38.1074 17.4301C38.1074 17.3771 37.8451 17.4654 37.5478 17.6243C37.2331 17.8008 36.5336 18.0657 36.009 18.2245L35.0647 18.5247L34.2078 17.9421C33.7357 17.6243 33.0712 17.2712 32.7214 17.1653C31.8296 16.9181 30.4656 16.9534 29.6612 17.2359C27.4753 18.0303 26.0939 20.0782 26.2513 22.3203Z" fill="white"/>
</svg>
