<svg width="54" height="54" viewBox="0 0 54 54" fill="none" xmlns="http://www.w3.org/2000/svg">
<rect x="2" y="2" width="50" height="50" rx="25" fill="#F7722D"/>
<path opacity="0.1" fill-rule="evenodd" clip-rule="evenodd" d="M2 27C2 13.1929 13.1929 2 27 2C40.8071 2 52 13.1929 52 27C52 40.8071 40.8071 52 27 52C13.1929 52 2 40.8071 2 27Z" stroke="#696969" stroke-width="3"/>
<path fill-rule="evenodd" clip-rule="evenodd" d="M27.0013 13.6667C23.3801 13.6667 22.9257 13.6825 21.5034 13.7472C20.084 13.8122 19.1151 14.0369 18.2673 14.3667C17.3903 14.7072 16.6464 15.1628 15.9053 15.9042C15.1636 16.6453 14.7081 17.3892 14.3664 18.2659C14.0359 19.1139 13.8109 20.0831 13.747 21.502C13.6834 22.9243 13.6667 23.379 13.6667 27.0001C13.6667 30.6213 13.6828 31.0743 13.7472 32.4966C13.8125 33.916 14.0372 34.8849 14.3667 35.7327C14.7075 36.6097 15.1631 37.3536 15.9045 38.0947C16.6453 38.8364 17.3892 39.293 18.2656 39.6336C19.114 39.9633 20.0831 40.188 21.5023 40.253C22.9246 40.3178 23.3787 40.3336 26.9996 40.3336C30.621 40.3336 31.0741 40.3178 32.4963 40.253C33.9158 40.188 34.8858 39.9633 35.7341 39.6336C36.6108 39.293 37.3536 38.8364 38.0944 38.0947C38.8361 37.3536 39.2917 36.6097 39.6333 35.733C39.9611 34.8849 40.1861 33.9158 40.2528 32.4969C40.3167 31.0746 40.3334 30.6213 40.3334 27.0001C40.3334 23.379 40.3167 22.9245 40.2528 21.5023C40.1861 20.0828 39.9611 19.1139 39.6333 18.2661C39.2917 17.3892 38.8361 16.6453 38.0944 15.9042C37.3528 15.1625 36.6111 14.7069 35.7333 14.3667C34.8833 14.0369 33.9138 13.8122 32.4944 13.7472C31.0721 13.6825 30.6194 13.6667 26.9971 13.6667H27.0013ZM25.8051 16.0694C26.1601 16.0689 26.5562 16.0694 27.0012 16.0694C30.5613 16.0694 30.9832 16.0822 32.389 16.1461C33.6891 16.2055 34.3946 16.4228 34.8646 16.6053C35.4869 16.8469 35.9305 17.1358 36.3969 17.6025C36.8635 18.0692 37.1524 18.5136 37.3947 19.1358C37.5772 19.6053 37.7947 20.3109 37.8538 21.6109C37.9177 23.0164 37.9316 23.4387 37.9316 26.997C37.9316 30.5554 37.9177 30.9776 37.8538 32.3832C37.7944 33.6832 37.5772 34.3888 37.3947 34.8582C37.153 35.4805 36.8635 35.9235 36.3969 36.3899C35.9302 36.8566 35.4871 37.1455 34.8646 37.3871C34.3952 37.5705 33.6891 37.7871 32.389 37.8466C30.9835 37.9105 30.5613 37.9244 27.0012 37.9244C23.4409 37.9244 23.0189 37.9105 21.6134 37.8466C20.3134 37.7866 19.6078 37.5694 19.1375 37.3869C18.5153 37.1452 18.0708 36.8563 17.6042 36.3896C17.1375 35.923 16.8486 35.4796 16.6064 34.8571C16.4239 34.3877 16.2064 33.6821 16.1472 32.3821C16.0833 30.9765 16.0705 30.5543 16.0705 26.9937C16.0705 23.4331 16.0833 23.0131 16.1472 21.6075C16.2067 20.3075 16.4239 19.602 16.6064 19.132C16.8481 18.5097 17.1375 18.0653 17.6042 17.5986C18.0708 17.1319 18.5153 16.843 19.1375 16.6008C19.6075 16.4175 20.3134 16.2008 21.6134 16.1411C22.8434 16.0855 23.3201 16.0689 25.8051 16.0661V16.0694ZM34.1185 18.2833C33.2352 18.2833 32.5185 18.9992 32.5185 19.8828C32.5185 20.7661 33.2352 21.4828 34.1185 21.4828C35.0019 21.4828 35.7185 20.7661 35.7185 19.8828C35.7185 18.9995 35.0019 18.2833 34.1185 18.2833ZM27.0013 20.1528C23.2199 20.1528 20.154 23.2187 20.154 27.0001C20.154 30.7815 23.2199 33.846 27.0013 33.846C30.7827 33.846 33.8475 30.7815 33.8475 27.0001C33.8475 23.2187 30.7827 20.1528 27.0013 20.1528ZM27.0012 22.5556C29.4557 22.5556 31.4457 24.5453 31.4457 27.0001C31.4457 29.4546 29.4557 31.4446 27.0012 31.4446C24.5465 31.4446 22.5568 29.4546 22.5568 27.0001C22.5568 24.5453 24.5465 22.5556 27.0012 22.5556Z" fill="white"/>
</svg>
