<svg width="25" height="20" viewBox="0 0 25 20" fill="none" xmlns="http://www.w3.org/2000/svg">
<path fill-rule="evenodd" clip-rule="evenodd" d="M12.2513 5.32031L12.3037 6.18537L11.4294 6.07944C8.24673 5.6734 5.4663 4.29637 3.10556 1.98367L1.95142 0.836143L1.65414 1.68355C1.02461 3.57255 1.42681 5.56747 2.73833 6.90919C3.43781 7.65067 3.28043 7.75659 2.07383 7.31524C1.65414 7.17401 1.28691 7.06808 1.25194 7.12104C1.12953 7.24462 1.54922 8.85116 1.88147 9.48671C2.33613 10.3694 3.26294 11.2345 4.27719 11.7464L5.13405 12.1525L4.11981 12.1701C3.14053 12.1701 3.10556 12.1878 3.21048 12.5585C3.56022 13.7061 4.94169 14.9242 6.48055 15.4538L7.56474 15.8246L6.62044 16.3895C5.22149 17.2016 3.57771 17.6606 1.93393 17.6959C1.14702 17.7136 0.5 17.7842 0.5 17.8371C0.5 18.0137 2.63341 19.0023 3.87499 19.3907C7.59971 20.5382 12.0239 20.0439 15.3464 18.0843C17.7072 16.6896 20.0679 13.9179 21.1696 11.2345C21.7642 9.80448 22.3587 7.19166 22.3587 5.93821C22.3587 5.12612 22.4112 5.02019 23.3905 4.04921C23.9675 3.48427 24.5096 2.86638 24.6145 2.68984C24.7894 2.35441 24.7719 2.35441 23.8801 2.65453C22.3937 3.18415 22.1839 3.11354 22.9183 2.3191C23.4604 1.75416 24.1074 0.730218 24.1074 0.430096C24.1074 0.377134 23.8451 0.465405 23.5478 0.624293C23.2331 0.800835 22.5336 1.06565 22.009 1.22454L21.0647 1.52466L20.2078 0.942068C19.7357 0.624293 19.0712 0.271208 18.7214 0.165283C17.8296 -0.0818758 16.4656 -0.0465674 15.6612 0.2359C13.4753 1.03034 12.0939 3.07823 12.2513 5.32031Z" fill="white"/>
</svg>
