<svg width="28" height="28" viewBox="0 0 28 28" fill="none" xmlns="http://www.w3.org/2000/svg">
<path fill-rule="evenodd" clip-rule="evenodd" d="M27.3332 13.9818C27.3332 14.8835 27.2414 15.784 27.0611 16.6617C26.8852 17.5186 26.6248 18.3599 26.2837 19.1641C25.9503 19.9541 25.5369 20.7153 25.0538 21.4253C24.5779 22.1307 24.0297 22.7925 23.4274 23.3958C22.8239 23.9965 22.1598 24.5433 21.4547 25.0212C20.7424 25.5009 19.98 25.9138 19.1896 26.2487C18.3842 26.588 17.541 26.848 16.6849 27.0236C15.806 27.2043 14.9022 27.2966 13.9992 27.2966C13.0956 27.2966 12.1919 27.2043 11.3142 27.0236C10.4568 26.848 9.61362 26.588 8.80888 26.2487C8.01849 25.9138 7.2554 25.5009 6.54314 25.0212C5.83802 24.5433 5.17393 23.9965 4.57168 23.3958C3.96881 22.7925 3.42057 22.1307 2.94399 21.4253C2.46349 20.7153 2.04938 19.954 1.71475 19.1641C1.37355 18.3599 1.1125 17.5186 0.936055 16.6617C0.757676 15.784 0.666504 14.8835 0.666504 13.9818C0.666504 13.0795 0.757624 12.1771 0.936107 11.3013C1.11255 10.4444 1.3736 9.60182 1.7148 8.79892C2.04943 8.00837 2.46355 7.24643 2.94404 6.53645C3.42062 5.83042 3.96886 5.16984 4.57173 4.56586C5.17398 3.9651 5.83808 3.41969 6.54319 2.94249C7.25545 2.46071 8.01854 2.04793 8.80893 1.71243C9.61367 1.37234 10.4568 1.11167 11.3143 0.937457C12.1919 0.758033 13.0956 0.666992 13.9993 0.666992C14.9023 0.666992 15.806 0.758033 16.6849 0.937457C17.5411 1.11172 18.3842 1.37239 19.1897 1.71243C19.98 2.04787 20.7425 2.46071 21.4547 2.94249C22.1598 3.41969 22.824 3.9651 23.4275 4.56586C24.0297 5.16984 24.578 5.83042 25.0539 6.53645C25.5369 7.24643 25.9503 8.00842 26.2837 8.79892C26.6248 9.60182 26.8852 10.4444 27.0611 11.3013C27.2414 12.1771 27.3332 13.0795 27.3332 13.9818ZM9.14086 3.69727C5.96553 5.19458 3.59562 8.11627 2.85664 11.6374C3.15682 11.64 7.90186 11.6999 13.3689 10.2494C11.3981 6.7529 9.29257 3.89952 9.14086 3.69727ZM14.3123 12.0002C8.44941 13.7529 2.82344 13.6268 2.62163 13.6191C2.61834 13.7413 2.6125 13.8596 2.6125 13.9818C2.6125 16.9028 3.71606 19.5658 5.52996 21.5793C5.52605 21.5735 8.64214 16.0532 14.787 14.069C14.9354 14.0196 15.0865 13.9753 15.2362 13.9324C14.9504 13.2862 14.6385 12.6387 14.3123 12.0002ZM21.5191 5.44812C19.5144 3.68295 16.8822 2.61225 13.9992 2.61225C13.074 2.61225 12.1762 2.72408 11.3161 2.93081C11.4867 3.15969 13.6255 5.99295 15.5728 9.56346C19.8693 7.95505 21.4911 5.4897 21.5191 5.44812ZM16.0124 15.8165C15.987 15.8249 15.9616 15.8321 15.9369 15.8412C9.21852 18.1799 7.02456 22.8932 7.00082 22.9446C8.93391 24.4458 11.3585 25.3514 13.9993 25.3514C15.5761 25.3514 17.0782 25.0308 18.4448 24.4503C18.2761 23.4569 17.6147 19.9748 16.0124 15.8165ZM20.3622 23.4114C22.9189 21.6886 24.7347 18.9528 25.2413 15.7839C25.0069 15.7085 21.8212 14.7015 18.1458 15.2899C19.6394 19.3884 20.2463 22.7262 20.3622 23.4114ZM16.4493 11.2577C16.7135 11.8 16.9695 12.3518 17.2058 12.9065C17.2898 13.1054 17.3718 13.3005 17.4519 13.4955C21.3636 13.004 25.2173 13.831 25.382 13.8647C25.356 11.1693 24.3904 8.69551 22.7927 6.7588C22.7712 6.78928 20.945 9.42431 16.4493 11.2577Z" fill="white"/>
</svg>
