<svg width="24" height="24" viewBox="0 0 24 24" fill="none" xmlns="http://www.w3.org/2000/svg">
<path d="M12 0C5.37262 0 0 5.37262 0 12C0 18.6274 5.37262 24 12 24C18.6274 24 24 18.6274 24 12C24 5.37262 18.6274 0 12 0ZM18.7395 11.625C18.6877 9.53175 18.2092 7.54575 17.3846 5.74988C18.3791 5.36663 19.323 4.881 20.2028 4.30463C22.0117 6.23212 23.148 8.79562 23.241 11.625H18.7395ZM12.4999 23.2372C12.4586 23.2391 12.4166 23.2391 12.375 23.2406V18.7631C13.6215 18.7957 14.8301 18.981 15.9769 19.3144C15.069 20.8279 13.8859 22.1565 12.4999 23.2372ZM16.7059 19.5529C17.562 19.8533 18.3791 20.2343 19.152 20.6846C17.6554 21.9184 15.8336 22.7708 13.8353 23.0989C14.9633 22.0729 15.9315 20.877 16.7059 19.5529ZM8.02275 19.3144C9.16987 18.9806 10.3785 18.7957 11.625 18.7631V23.2402C11.5834 23.2388 11.5414 23.2388 11.5001 23.2369C10.1137 22.1565 8.931 20.8279 8.02275 19.3144ZM10.1644 23.0985C8.166 22.7708 6.34425 21.9184 4.84762 20.6842C5.62087 20.2343 6.43763 19.8529 7.29375 19.5529C8.06813 20.877 9.03675 22.0729 10.1644 23.0985ZM0.759375 11.625C0.852375 8.79562 1.98825 6.23212 3.79763 4.30463C4.67737 4.88063 5.62087 5.36625 6.61575 5.74988C5.79075 7.54575 5.31225 9.53175 5.2605 11.625H0.759375ZM16.3387 5.3235C15.0844 5.72438 13.7535 5.94975 12.375 5.98575V0.759375C12.4166 0.760875 12.4586 0.760875 12.4999 0.76275C14.0779 1.99275 15.3926 3.54488 16.3387 5.3235ZM13.8356 0.9015C16.0646 1.2675 18.0724 2.2875 19.656 3.75975C18.84 4.28137 17.97 4.7235 17.052 5.07187C16.2292 3.49725 15.1384 2.08575 13.8356 0.9015ZM11.625 0.759375V5.98575C10.2461 5.94975 8.91525 5.72475 7.66125 5.3235C8.60738 3.54488 9.92212 1.99275 11.5001 0.76275C11.5414 0.760875 11.5834 0.760875 11.625 0.759375ZM6.94837 5.07187C6.03037 4.7235 5.16 4.28137 4.34438 3.75975C5.928 2.2875 7.93538 1.2675 10.1648 0.9015C8.86163 2.08575 7.77075 3.49725 6.94837 5.07187ZM7.3245 6.00338C8.68275 6.44925 10.1265 6.70575 11.625 6.74288V11.625H6.01163C6.06375 9.62025 6.52612 7.719 7.3245 6.00338ZM11.625 12.375V18.0135C10.2435 18.048 8.90812 18.2629 7.64437 18.6469C6.6495 16.767 6.0705 14.6359 6.01163 12.375H11.625ZM12.375 18.0135V12.375H17.9884C17.9299 14.6359 17.3505 16.767 16.3556 18.6473C15.0919 18.2629 13.7565 18.048 12.375 18.0135ZM12.375 11.625V6.7425C13.8735 6.70537 15.3172 6.44925 16.6755 6.003C17.4739 7.71862 17.9363 9.62025 17.9884 11.6246L12.375 11.625ZM0.759375 12.375H5.2605C5.31825 14.7199 5.913 16.9298 6.92813 18.8884C5.99213 19.2255 5.1015 19.6549 4.26225 20.1619C2.18513 18.1924 0.86025 15.4395 0.759375 12.375ZM19.7377 20.1623C18.8985 19.6549 18.0079 19.2259 17.0719 18.8888C18.087 16.9298 18.6817 14.7203 18.7395 12.3754H23.2406C23.1397 15.4395 21.8149 18.1924 19.7377 20.1623Z" fill="white"/>
</svg>
